<?xml version="1.0" encoding="UTF-8"?>
<svg version="1.1" xmlns="http://www.w3.org/2000/svg" width="1280" height="720">
<path d="M0 0 C422.4 0 844.8 0 1280 0 C1280 237.6 1280 475.2 1280 720 C857.6 720 435.2 720 0 720 C0 482.4 0 244.8 0 0 Z " fill="#10100F" transform="translate(0,0)"/>
<path d="M0 0 C2.21306993 0.44676999 4.42326327 0.83528097 6.65234375 1.19140625 C17.3606709 3.02188952 27.3720499 6.66514727 37.49609375 10.50390625 C38.60670166 10.9218042 38.60670166 10.9218042 39.73974609 11.34814453 C67.53672788 21.9311376 92.05567688 37.98122435 113.49609375 58.50390625 C114.04910156 59.02436523 114.60210938 59.54482422 115.171875 60.08105469 C124.73803999 69.11276689 132.82999491 78.82393832 140.49609375 89.50390625 C141.15254883 90.40133545 141.15254883 90.40133545 141.82226562 91.31689453 C159.62021443 115.79948635 171.16658604 144.38933923 177.62109375 173.81640625 C177.7799707 174.52619629 177.93884766 175.23598633 178.10253906 175.96728516 C181.03599294 189.95831621 181.87646592 203.99941661 181.80859375 218.25390625 C181.80710327 219.03627655 181.80561279 219.81864685 181.80407715 220.62472534 C181.76136836 233.14939708 180.92830336 245.19608694 178.49609375 257.50390625 C178.21350043 259.09741861 177.93226294 260.69117197 177.65234375 262.28515625 C175.4690884 274.13314837 171.7955111 285.26867991 167.49609375 296.50390625 C167.21894531 297.23851074 166.94179688 297.97311523 166.65625 298.72998047 C156.07360042 326.53475297 140.02392145 351.05811347 119.49609375 372.50390625 C118.97563477 373.05691406 118.45517578 373.60992187 117.91894531 374.1796875 C108.88857253 383.7444338 99.17978727 391.8450986 88.49609375 399.50390625 C87.88717285 399.94686035 87.27825195 400.38981445 86.65087891 400.84619141 C63.26200653 417.73418996 35.75258716 429.84049332 7.49609375 435.50390625 C5.45414225 436.04449818 3.41246547 436.58612907 1.37109375 437.12890625 C-24.43731789 442.95250592 -53.64792589 442.62414966 -79.50390625 437.50390625 C-80.38949219 437.3322998 -81.27507812 437.16069336 -82.1875 436.98388672 C-124.96672383 428.49630667 -163.03967653 408.60741403 -194.50390625 378.50390625 C-195.05546387 377.98489746 -195.60702148 377.46588867 -196.17529297 376.93115234 C-205.74154264 367.89920942 -213.84382642 358.1893744 -221.50390625 347.50390625 C-221.94686035 346.89498535 -222.38981445 346.28606445 -222.84619141 345.65869141 C-239.61356235 322.43688109 -252.25830255 294.69551974 -257.50390625 266.50390625 C-257.77825261 265.12231769 -258.05299942 263.7408086 -258.328125 262.359375 C-261.68780109 244.9708356 -262.93388593 227.77811403 -262.55712891 210.07666016 C-262.51232387 207.91080942 -262.49515255 205.74441232 -262.484375 203.578125 C-260.95166731 151.63636436 -235.92636556 101.52751178 -200.50390625 64.50390625 C-199.98489746 63.95234863 -199.46588867 63.40079102 -198.93115234 62.83251953 C-189.8978696 53.26485078 -180.18564823 45.17127851 -169.50390625 37.50390625 C-168.90562012 37.06626953 -168.30733398 36.62863281 -167.69091797 36.17773438 C-143.11416696 18.31133528 -114.24343547 6.29642874 -84.50390625 0.50390625 C-83.5598291 0.30925781 -82.61575195 0.11460938 -81.64306641 -0.0859375 C-54.80003554 -5.49965801 -26.8197571 -5.50247527 0 0 Z " fill="#4DEA3C" transform="translate(696.50390625,41.49609375)"/>
<path d="M0 0 C422.4 0 844.8 0 1280 0 C1280 237.6 1280 475.2 1280 720 C857.6 720 435.2 720 0 720 C0 482.4 0 244.8 0 0 Z M8 6 C8 239.97 8 473.94 8 715 C426.11 715 844.22 715 1275 715 C1275 481.03 1275 247.06 1275 6 C856.89 6 438.78 6 8 6 Z " fill="#FFFFFF" transform="translate(0,0)"/>
<path d="M0 0 C4.14338598 2.57904637 7.55349232 5.55349232 11 9 C11 5.7 11 2.4 11 -1 C15.62 -1 20.24 -1 25 -1 C24.93840972 9.04143527 24.86103675 19.08261873 24.76428509 29.12378025 C24.71982411 33.78782438 24.68051671 38.45178602 24.65356445 43.1159668 C24.6272865 47.62897326 24.58671748 52.141658 24.53681374 56.65446281 C24.52030869 58.36412447 24.50869377 60.07384156 24.50238609 61.78357124 C24.37422601 93.36995173 24.37422601 93.36995173 13.6875 104.75 C3.48421455 114.22140421 -9.1249893 115.75371359 -22.56640625 115.36328125 C-30.17578819 114.91161278 -37.28092947 112.53467692 -44 109 C-43.68950274 107.56206608 -43.3765224 106.1246682 -43.0625 104.6875 C-42.88847656 103.88699219 -42.71445312 103.08648438 -42.53515625 102.26171875 C-42 100 -42 100 -41 97 C-40.1646875 97.29003906 -40.1646875 97.29003906 -39.3125 97.5859375 C-26.61780341 101.91757384 -14.86391327 104.44880304 -2 99 C3.24088127 96.03776276 5.1055943 91.50677737 7 86 C7.96841425 82.17632569 8.10577153 78.62520949 8.0625 74.6875 C8.05347656 73.61886719 8.04445313 72.55023437 8.03515625 71.44921875 C8.02355469 70.64097656 8.01195312 69.83273437 8 69 C7.443125 69.54269531 6.88625 70.08539062 6.3125 70.64453125 C-2.42205112 78.83317293 -8.32477778 80.62261172 -20.375 80.34765625 C-25.30468558 79.8748739 -28.83610119 78.619889 -33 76 C-33.68449219 75.59910156 -34.36898437 75.19820312 -35.07421875 74.78515625 C-43.28727608 69.38800429 -48.3881087 60.54898392 -50.56640625 51.078125 C-52.55928838 36.93045725 -51.20408269 23.4419791 -42.9375 11.47265625 C-32.35321721 -2.03510787 -15.9483598 -7.12923369 0 0 Z " fill="#DAD9D9" transform="translate(796,521)"/>
<path d="M0 0 C2.8477484 2.16595847 5.46399427 4.4781619 8 7 C8.33 4.03 8.66 1.06 9 -2 C13.62 -2 18.24 -2 23 -2 C22.96179087 8.85830736 22.90220951 19.71627399 22.81609726 30.57431316 C22.77675772 35.61734416 22.74450333 40.66020406 22.72900391 45.70336914 C22.71374771 50.57951506 22.67914521 55.4551902 22.63169098 60.33112526 C22.61696898 62.18199358 22.60896432 64.03292915 22.60811615 65.88385582 C22.59579072 79.30664162 22.27629035 92.33685343 13.04296875 103.06640625 C2.60032798 112.94997638 -9.57427717 114.65686554 -23.34375 114.29296875 C-31.31721574 113.90950459 -38.24869839 112.31938114 -45 108 C-44.14285714 99.42857143 -44.14285714 99.42857143 -42 96 C-39.1209801 96.93735532 -36.28769934 97.87772778 -33.5 99.0625 C-25.2527001 102.15523746 -14.85218342 102.37212318 -6.5625 99.4375 C-0.93920166 96.81755418 2.42611392 93.39911519 5.02734375 87.78125 C7.43728339 80.94013103 7.30368658 74.17600135 7 67 C6.38125 67.886875 5.7625 68.77375 5.125 69.6875 C1.04483242 74.63528942 -5.03487855 77.01162618 -11 79 C-22.86504701 79.94118058 -31.14699085 78.53366529 -40.3125 70.8125 C-47.90225894 63.55635684 -51.86292812 55.22752437 -52.37109375 44.7421875 C-52.66075283 30.86798871 -52.01022478 18.96095851 -42.7890625 7.77734375 C-31.18289322 -3.75280259 -14.84054164 -8.61148487 0 0 Z " fill="#DAD9D9" transform="translate(701,522)"/>
<path d="M0 0 C12.34853965 -0.45735332 23.32098371 0.03404681 33.31640625 8.3046875 C40.22231559 15.25866582 42.0631569 23.15012645 42.3125 32.6875 C42.24383748 38.97948371 41.48546652 44.97974689 40.5 51.1875 C39.36412432 58.45231615 38.64979737 65.58065043 38.5625 72.9375 C38.54058594 73.75951904 38.51867187 74.58153809 38.49609375 75.4284668 C38.51381562 80.75665644 39.49347159 83.76484231 43 88 C47.37675828 91.60438917 52.54945939 92.05523963 58 93 C58 97.29 58 101.58 58 106 C56.63875 106.0825 55.2775 106.165 53.875 106.25 C49.30627759 106.77357415 46.54795485 107.94710862 43 111 C39.45387968 115.47794756 38.47272751 118.37092406 38.5625 124.0625 C38.5728125 124.74441406 38.583125 125.42632812 38.59375 126.12890625 C38.79913305 132.89446548 39.87718935 139.51567363 40.92089844 146.19262695 C43.02471548 160.10303467 43.79414064 174.65927733 36 187 C30.67766752 193.32926024 23.10766992 197.44746746 15 199 C9.95077448 199.23707652 5.07078097 199.13704813 0 199 C0 194.38 0 189.76 0 185 C1.65 184.9175 3.3 184.835 5 184.75 C10.33724208 184.25479197 14.64462257 183.21035191 19 180 C23.41289766 174.30593851 23.19258954 168.40205548 23.1875 161.5 C23.18814453 160.59435303 23.18878906 159.68870605 23.18945312 158.75561523 C23.15260606 154.07645721 22.94129243 149.66214883 22 145.0625 C20.88442379 139.45251602 20.73865974 133.95185147 20.6875 128.25 C20.67009766 127.3619165 20.65269531 126.47383301 20.63476562 125.55883789 C20.64093397 117.32950048 22.68618188 110.49466659 28 104 C33.54037267 100 33.54037267 100 37 100 C37 99.34 37 98.68 37 98 C36.113125 97.773125 35.22625 97.54625 34.3125 97.3125 C27.9289819 94.78318151 24.95078068 89.90156137 22 84 C19.49645503 74.49307432 20.78526292 63.77541126 22 54.125 C22.77532378 47.84596937 23.24443692 41.64105709 23.3125 35.3125 C23.32990234 34.58240723 23.34730469 33.85231445 23.36523438 33.10009766 C23.36054223 28.02671251 22.36302776 24.50663151 20 20 C15.41469119 15.75020159 12.53686783 14.86037328 6.375 14.4375 C4.27125 14.293125 2.1675 14.14875 0 14 C0 9.38 0 4.76 0 0 Z " fill="#182232" transform="translate(760,160)"/>
<path d="M0 0 C1.13598633 0.00483398 1.13598633 0.00483398 2.29492188 0.00976562 C3.47344727 0.02233398 3.47344727 0.02233398 4.67578125 0.03515625 C5.47306641 0.03966797 6.27035156 0.04417969 7.09179688 0.04882812 C9.05732382 0.06059775 11.0228121 0.07853277 12.98828125 0.09765625 C12.98828125 4.71765625 12.98828125 9.33765625 12.98828125 14.09765625 C9.95640625 14.22140625 9.95640625 14.22140625 6.86328125 14.34765625 C-0.01282133 14.87831199 -3.24178351 15.94566098 -7.82421875 21.16015625 C-10.57445183 25.64737865 -10.20304808 30.01901003 -10.19921875 35.09765625 C-10.19986328 35.98469238 -10.20050781 36.87172852 -10.20117188 37.78564453 C-10.15349505 43.90453219 -9.72633899 49.89807374 -9.01171875 55.97265625 C-6.31433123 79.31331559 -6.31433123 79.31331559 -12.01171875 90.09765625 C-14.89321014 93.6441072 -17.92308819 96.05334097 -22.01171875 98.09765625 C-23.00171875 98.09765625 -23.99171875 98.09765625 -25.01171875 98.09765625 C-25.01171875 98.75765625 -25.01171875 99.41765625 -25.01171875 100.09765625 C-24.31046875 100.18015625 -23.60921875 100.26265625 -22.88671875 100.34765625 C-16.66060104 101.97186087 -13.87255369 104.70872609 -10.63671875 110.16015625 C-5.98257009 120.12636987 -7.10465472 131.76064636 -9.01171875 142.34765625 C-10.11379998 148.53688057 -10.30780877 154.63878552 -10.38671875 160.91015625 C-10.42539062 162.3792041 -10.42539062 162.3792041 -10.46484375 163.87792969 C-10.48175924 170.07957159 -9.71292515 174.98639194 -6.01171875 180.09765625 C-0.14850065 184.86152096 5.57215485 184.7643472 12.98828125 185.09765625 C12.98828125 189.71765625 12.98828125 194.33765625 12.98828125 199.09765625 C0.06172089 199.45019881 -10.8547645 199.05022857 -21.01171875 190.09765625 C-29.06295723 180.08270106 -29.87370594 168.52197772 -29.01171875 156.09765625 C-28.58008187 152.29614846 -28.04808277 148.51063042 -27.51171875 144.72265625 C-26.55070671 137.8268747 -25.68063106 131.00349998 -25.57421875 124.03515625 C-25.55488281 122.82730469 -25.53554688 121.61945313 -25.515625 120.375 C-26.29824798 115.20475839 -28.8032859 112.13747056 -32.69921875 108.78515625 C-36.95409332 106.61757864 -40.26195826 106.38552052 -45.01171875 106.09765625 C-45.01171875 101.80765625 -45.01171875 97.51765625 -45.01171875 93.09765625 C-43.13484375 92.68515625 -41.25796875 92.27265625 -39.32421875 91.84765625 C-32.95708751 90.25069892 -32.95708751 90.25069892 -28.01171875 86.09765625 C-23.73465314 75.71702014 -25.80065607 63.45652504 -27.51171875 52.66015625 C-31.80110447 25.22114668 -31.80110447 25.22114668 -25.01171875 14.09765625 C-24.62242187 13.45699219 -24.233125 12.81632813 -23.83203125 12.15625 C-18.79642083 5.25835762 -8.55205263 -0.06430115 0 0 Z " fill="#182232" transform="translate(556.01171875,159.90234375)"/>
<path d="M0 0 C5.28 0 10.56 0 16 0 C17.47654768 5.61483313 18.95147167 11.23008967 20.42504883 16.84570312 C20.92397822 18.74620395 21.42331114 20.64659889 21.9230957 22.546875 C25.37556599 35.67530178 28.73796922 48.82293576 32 62 C34.8661294 54.24197208 37.48919905 46.51016673 39.76123047 38.55322266 C42.1036539 30.45974583 44.7164944 22.452263 47.3125 14.4375 C47.6586586 13.36860031 47.6586586 13.36860031 48.0118103 12.27810669 C49.33825774 8.18443681 50.66870944 4.09210282 52 0 C56.62 0 61.24 0 66 0 C66.43570313 1.43988281 66.87140625 2.87976563 67.3203125 4.36328125 C67.92167902 6.34641361 68.52325758 8.32948167 69.125 10.3125 C69.44267334 11.36050781 69.76034668 12.40851562 70.08764648 13.48828125 C71.79130866 19.09094579 73.53041408 24.67859413 75.33496094 30.24951172 C79.039324 41.70817572 82.06100241 53.32433593 85 65 C85.13535156 64.195625 85.27070312 63.39125 85.41015625 62.5625 C87.08751853 53.40229401 89.4921201 44.57682455 92.15478516 35.65625 C95.67553928 23.83511874 98.83710115 11.92095615 102 0 C106.95 0 111.9 0 117 0 C115.62403317 7.68129934 113.57027532 14.90822574 111.125 22.3125 C110.74077881 23.49150879 110.35655762 24.67051758 109.96069336 25.88525391 C109.11281724 28.48656661 108.26298845 31.08716673 107.41064453 33.68701172 C105.86583784 38.40373762 104.33667898 43.12549114 102.80859375 47.84765625 C102.2648231 49.52759174 101.72104057 51.20752339 101.17724609 52.88745117 C100.90966492 53.71409271 100.64208374 54.54073425 100.36639404 55.39242554 C99.08044314 59.36368132 97.79267042 63.33434389 96.50390625 67.3046875 C96.28028915 67.99422012 96.05667206 68.68375275 95.82627869 69.3941803 C94.56813085 73.26891594 93.28832642 77.13502074 92 81 C87.38 81 82.76 81 78 81 C75.3003205 75.0523984 73.2808398 68.97372159 71.3125 62.75 C70.97017334 61.67621094 70.62784668 60.60242188 70.27514648 59.49609375 C67.22032404 49.84533153 64.34083479 40.14432902 61.52661133 30.42089844 C61.20974365 29.33325195 60.89287598 28.24560547 60.56640625 27.125 C60.28740479 26.15820312 60.00840332 25.19140625 59.72094727 24.1953125 C59.19877301 22.04837839 59.19877301 22.04837839 58 21 C57.77973145 21.7213916 57.55946289 22.4427832 57.33251953 23.18603516 C52.87265577 37.75798075 48.3075148 52.28868178 43.5 66.75 C43.28104065 67.41187317 43.0620813 68.07374634 42.83648682 68.75567627 C42.21735641 70.62472172 41.59317799 72.49209274 40.96875 74.359375 C40.61232422 75.42639648 40.25589844 76.49341797 39.88867188 77.59277344 C39 80 39 80 38 81 C35.64686445 81.07271741 33.29166332 81.08370868 30.9375 81.0625 C29.00197266 81.04896484 29.00197266 81.04896484 27.02734375 81.03515625 C26.02832031 81.02355469 25.02929688 81.01195312 24 81 C20.97069876 71.47064033 18.06608559 61.90737137 15.20706177 52.32562256 C11.99995745 41.57788 8.73771386 30.85264234 5.29541016 20.17724609 C3.94357294 15.98428788 2.60573957 11.78714256 1.3046875 7.578125 C1.05444824 6.7727832 0.80420898 5.96744141 0.54638672 5.13769531 C0 3 0 3 0 0 Z " fill="#DAD9D9" transform="translate(436,520)"/>
<path d="M0 0 C5.98871246 5.57089531 9.38680736 14.74473712 9.84571838 22.76521301 C9.86903481 24.26745674 9.86903481 24.26745674 9.89282227 25.80004883 C9.9227401 27.51125664 9.9227401 27.51125664 9.95326233 29.2570343 C9.96997482 30.47803329 9.98668732 31.69903229 10.00390625 32.95703125 C10.02468735 34.21513107 10.04546844 35.4732309 10.06687927 36.76945496 C10.12110465 40.10172286 10.17137945 43.43400239 10.21972656 46.76635742 C10.27011084 50.17176555 10.32570823 53.5770882 10.38085938 56.98242188 C10.48786703 63.65488173 10.58918302 70.32740666 10.6875 77 C6.0675 77 1.4475 77 -3.3125 77 C-3.9725 74.36 -4.6325 71.72 -5.3125 69 C-6.26125 69.9075 -7.21 70.815 -8.1875 71.75 C-15.63973864 78.02713514 -23.2400727 79.75412175 -32.90234375 79.44921875 C-39.38459025 78.59531457 -44.82774632 75.99209576 -49.25 71.125 C-54.10924548 63.76250685 -55.48479165 57.83727553 -54.3125 49 C-51.7691147 40.71044793 -46.62610683 35.23618491 -39.32421875 30.7890625 C-29.2846596 25.75982948 -17.40308185 24.37745175 -6.3125 25 C-6.58008666 18.97930006 -7.17824196 14.69294156 -11.3125 10 C-18.42788507 5.7123935 -26.31511843 5.92354052 -34.3046875 7.64453125 C-36.67420698 8.35819958 -38.98598459 9.15914331 -41.3125 10 C-42.64170553 10.34943032 -43.97399398 10.6880857 -45.3125 11 C-48.31954486 4.74534668 -48.31954486 4.74534668 -48.29296875 1.93359375 C-46.71922868 -1.16999722 -44.25726458 -1.55214084 -41.0625 -2.6875 C-39.35320313 -3.31205078 -39.35320313 -3.31205078 -37.609375 -3.94921875 C-24.62416609 -8.08786946 -11.67751126 -7.05057284 0 0 Z " fill="#D9D8D8" transform="translate(618.3125,524)"/>
<path d="M0 0 C8.0627389 6.51534457 10.95315946 15.492377 12.75 25.375 C12.75 29.665 12.75 33.955 12.75 38.375 C-6.06 38.375 -24.87 38.375 -44.25 38.375 C-41.71850062 52.9740226 -41.71850062 52.9740226 -32.25 62.375 C-26.45518789 64.91647471 -21.79934367 65.86465761 -15.5 65.75 C-14.72156738 65.74419922 -13.94313477 65.73839844 -13.14111328 65.73242188 C-6.57220924 65.58611508 -0.4999024 64.43379138 5.75 62.375 C7.25576582 66.89229745 7.88905625 69.763017 6.75 74.375 C5.16701974 74.8553318 3.58360022 75.33421612 2 75.8125 C1.11828125 76.07933594 0.2365625 76.34617187 -0.671875 76.62109375 C-11.76793296 79.86585009 -26.31192684 80.48127385 -36.96875 75.625 C-37.7215625 75.2125 -38.474375 74.8 -39.25 74.375 C-40.0440625 73.9625 -40.838125 73.55 -41.65625 73.125 C-50.88949263 67.70816432 -55.82651169 59.15223624 -58.58984375 48.99609375 C-61.32153452 34.01220415 -59.06350768 19.62674201 -50.359375 6.88671875 C-37.28163851 -8.68547489 -16.67451763 -11.0953312 0 0 Z " fill="#DAD9D9" transform="translate(900.25,524.625)"/>
<path d="M0 0 C-0.47690204 1.62566606 -0.95659666 3.25051311 -1.4375 4.875 C-1.70433594 5.77992188 -1.97117187 6.68484375 -2.24609375 7.6171875 C-3 10 -3 10 -4 12 C-6.59360077 11.52161433 -9.09403879 10.97169026 -11.62109375 10.2109375 C-20.17657506 7.67158521 -29.03609004 6.71459328 -37.55859375 9.98046875 C-41.94317228 12.4664041 -44.45899584 15.08804925 -46 20 C-46.74073959 25.74073184 -46.06558515 29.37717419 -42.70703125 34.1328125 C-37.22101119 40.13353925 -29.1794215 42.83596524 -21.875 46 C-10.90482099 50.75460254 -1.33200696 56.52430006 3.39575195 68.07543945 C4.41071427 71.30814568 4.48878335 74.52179567 4.4375 77.875 C4.42920166 78.57753906 4.42090332 79.28007813 4.41235352 80.00390625 C4.09441656 89.79772218 0.04389888 96.39001686 -7 103 C-17.57050331 111.78972737 -31.90133925 112.0726176 -45 111 C-52.09962025 109.9292376 -58.00818955 107.94914779 -64 104 C-63.49202991 99.6822542 -62.80317221 95.96697886 -61 92 C-56.6520818 92.65877548 -53.02582681 94.27464565 -49 96 C-40.39678093 98.29209851 -27.60910957 99.04841444 -19.5625 94.9375 C-15.82841812 92.26711077 -13.27087346 89.45641813 -12 85 C-11.13929745 79.46336533 -11.22997135 74.59227172 -14 69.625 C-19.04603889 62.93232043 -26.72352334 60.13270544 -34.3125 57.1875 C-45.03013988 52.82651497 -54.89220915 48.00496756 -60 37 C-60.433125 36.0925 -60.86625 35.185 -61.3125 34.25 C-63.15334492 25.54782402 -62.77215652 17.62120519 -58 10 C-52.91705479 2.31186839 -45.50488181 -2.20926968 -36.64453125 -4.6484375 C-24.16747496 -6.30713036 -11.41540143 -5.45953981 0 0 Z " fill="#DBDADA" transform="translate(420,492)"/>
<path d="M0 0 C4.11680733 3.42543511 6.676845 7.96306501 9.046875 12.703125 C9.31796015 16.55130194 9.27858627 20.40898857 9.296875 24.265625 C9.3175 25.32587891 9.338125 26.38613281 9.359375 27.47851562 C9.40505141 36.733699 8.17183913 44.40039497 1.62890625 51.26171875 C-3.48793461 55.92372931 -8.38101127 56.19077927 -15.0546875 55.9765625 C-22.21980608 55.30060792 -25.88563864 52.18866394 -30.375 46.93359375 C-36.50855043 38.26464005 -36.83913398 28.06926719 -35.328125 17.765625 C-33.45393516 9.4000359 -28.87803892 3.61029011 -21.953125 -1.296875 C-14.99994485 -5.43119833 -6.60829125 -4.0774563 0 0 Z " fill="#111111" transform="translate(795.953125,533.296875)"/>
<path d="M0 0 C4.66901866 2.91176982 8.04717175 7.28206403 10.1484375 12.33984375 C10.6068109 16.9112517 10.51876133 21.49784421 10.5234375 26.08984375 C10.54792969 27.34023438 10.57242188 28.590625 10.59765625 29.87890625 C10.62410111 38.21785256 9.9987435 43.8779679 4.40234375 50.36328125 C-2.23188798 55.66453801 -7.323503 57.14707992 -15.8515625 56.33984375 C-21.38285228 55.26675402 -25.11677932 52.94826099 -28.53125 48.4609375 C-34.56042528 38.77501391 -35.44407253 27.58881658 -33.30859375 16.52734375 C-31.25077184 9.79678812 -27.79596586 4.25774596 -21.8515625 0.33984375 C-14.20422854 -3.41928877 -7.75667137 -3.719496 0 0 Z " fill="#111111" transform="translate(697.8515625,532.66015625)"/>
<path d="M0 0 C2.1346875 0.0309375 2.1346875 0.0309375 4.3125 0.0625 C4.3125 5.0125 4.3125 9.9625 4.3125 15.0625 C1.775625 15.18625 1.775625 15.18625 -0.8125 15.3125 C-7.09286871 15.89297054 -10.42119372 17.79619372 -14.875 22.25 C-19.60090765 29.58330497 -20.14600669 37.12144461 -20.19921875 45.66015625 C-20.21716995 46.73502792 -20.23512115 47.8098996 -20.25361633 48.91734314 C-20.30740532 52.3198566 -20.34151436 55.72223232 -20.375 59.125 C-20.40820076 61.4446805 -20.44269294 63.76434289 -20.47851562 66.08398438 C-20.56311383 71.74338969 -20.63007449 77.40275639 -20.6875 83.0625 C-25.6375 83.0625 -30.5875 83.0625 -35.6875 83.0625 C-36.0175 56.3325 -36.3475 29.6025 -36.6875 2.0625 C-32.0675 2.0625 -27.4475 2.0625 -22.6875 2.0625 C-22.3575 6.3525 -22.0275 10.6425 -21.6875 15.0625 C-20.8625 13.680625 -20.0375 12.29875 -19.1875 10.875 C-14.62503269 3.99336879 -8.38814664 -0.12156734 0 0 Z " fill="#DAD9D9" transform="translate(969.6875,517.9375)"/>
<path d="M0 0 C1.11147871 19.08038454 1.11147871 19.08038454 -4.1015625 25.296875 C-8.77133671 29.48621976 -13.31827159 32.21937658 -19.6875 32.5625 C-24.05691913 32.28084755 -26.68367376 30.93070691 -30 28 C-32.74123193 24.75380429 -33.8995126 22.78954386 -34.4375 18.5625 C-33.80025234 13.37348338 -33.01655991 9.78703277 -29.078125 6.296875 C-19.71535028 -0.35392359 -11.16015708 -0.2821388 0 0 Z " fill="#131313" transform="translate(613,560)"/>
<path d="M0 0 C6.73426786 5.63646751 6.80154458 11.5005841 7.60546875 20.34375 C-6.25453125 20.34375 -20.11453125 20.34375 -34.39453125 20.34375 C-32.4267832 10.50500973 -30.81226788 5.69803072 -23.3125 -0.39453125 C-16.16256432 -5.09805309 -7.08963171 -4.54255578 0 0 Z " fill="#151515" transform="translate(890.39453125,532.65625)"/>
<path d="M0 0 C4.15488007 2.31543802 6.41248993 4.87224977 7.8125 9.4375 C8.728322 14.78415608 8.38903604 19.11889772 5.6875 23.875 C2.7048991 27.99898728 -0.21797121 29.95976959 -5.32421875 30.78125 C-10.45330204 31.12957484 -13.78252253 30.21159956 -17.74609375 26.91015625 C-21.4019582 23.17503187 -22.37824952 19.58922861 -22.625 14.5 C-22.4383686 9.328755 -21.37784303 6.52768337 -18.1875 2.4375 C-12.55550764 -2.26047382 -6.7670656 -2.89480028 0 0 Z " fill="#182332" transform="translate(615.1875,244.5625)"/>
<path d="M0 0 C4.05640376 1.43167191 7.40554989 3.48231021 10.08203125 6.9296875 C12.35026463 12.04527768 12.1671105 18.86005804 10.23046875 24.0703125 C7.68626601 28.10454633 4.45133264 30.51622245 0 32 C-6.12093081 32.50171564 -9.1167095 32.08833623 -14 28 C-18.1497263 23.27789765 -18.3495137 18.80487605 -18.27734375 12.7265625 C-17.74350205 7.47837228 -15.09372328 4.94457919 -11.25 1.625 C-7.24168396 -0.37915802 -4.39008284 -0.71261866 0 0 Z " fill="#172132" transform="translate(668,243)"/>
<path d="M0 0 C5.34740414 1.95385921 8.45618143 4.91236287 11 10 C11.61964192 17.2927088 11.36331651 22.90552773 6.5625 28.75 C2.62209908 31.90232073 -0.81940963 32.44214195 -5.75390625 32.3125 C-10.52712831 31.64839954 -13.17917144 28.86403006 -16.375 25.5 C-18.77303575 20.33499991 -18.75381535 15.5997712 -18 10 C-14.42399429 2.29783386 -8.32302807 -1.3649766 0 0 Z " fill="#172132" transform="translate(725,243)"/>
</svg>
