<svg version="1.1" id="Layer_1" xmlns="http://www.w3.org/2000/svg" xmlns:xlink="http://www.w3.org/1999/xlink" x="0px" y="0px"
	 width="100%" viewBox="0 0 1200 630" enable-background="new 0 0 1200 630" xml:space="preserve">
<path fill="#FFFFFF" opacity="1.000000" stroke="none" 
	d="
M693.000000,631.000000 
	C463.500000,631.000000 234.500031,630.989258 5.500083,631.093384 
	C1.750972,631.095093 0.904526,630.249390 0.906435,626.500000 
	C1.011844,419.500061 1.011842,212.500076 0.906459,5.500126 
	C0.904550,1.751037 1.750659,0.906071 5.499944,0.907008 
	C402.499908,1.006187 799.499878,1.006183 1196.499878,0.907047 
	C1200.248535,0.906111 1201.095581,1.750284 1201.093628,5.499897 
	C1200.988159,212.499832 1200.988159,419.499817 1201.093506,626.499756 
	C1201.095337,630.248474 1200.250000,631.096252 1196.500244,631.093811 
	C1028.833496,630.985352 861.166748,631.000000 693.000000,631.000000 
z"/>
<path fill="#392A25" opacity="1.000000" stroke="none" 
	d="
M616.847473,167.551559 
	C617.821289,166.920258 618.501709,166.450546 619.474487,165.876328 
	C620.842041,165.305923 621.557129,164.339645 622.858521,163.602707 
	C625.391785,162.148178 627.620850,160.856369 630.202576,159.501556 
	C632.681824,158.875565 634.322571,157.179581 636.877686,156.778687 
	C637.906677,156.534775 638.613892,156.377350 639.686401,156.228409 
	C646.064331,155.376755 652.083069,155.349747 658.530762,156.187286 
	C659.376953,156.286499 659.799805,156.303253 660.525879,156.417084 
	C664.327026,157.172546 667.348145,158.984711 670.755981,160.734818 
	C671.022766,160.962906 671.016418,160.999374 671.029480,160.985184 
	C671.180237,162.157227 670.400513,162.472977 669.022461,162.582947 
	C668.224915,162.469711 667.866211,162.411057 667.254822,162.248627 
	C653.469238,158.053955 640.797424,160.821732 628.172852,167.080139 
	C627.045349,167.708328 626.295166,168.228073 625.216492,168.845856 
	C624.510132,169.469528 624.026672,169.856781 623.101990,170.136612 
	C621.724182,171.028564 620.655151,171.854279 619.295227,172.852173 
	C618.177917,173.783722 617.429382,174.635773 616.120117,175.324799 
	C598.879700,190.706772 587.218201,209.317078 580.395020,231.002747 
	C579.848267,232.740433 579.551086,234.556671 579.211060,236.714508 
	C578.825012,238.480148 579.184021,239.981537 578.539917,241.692810 
	C578.284790,243.083908 578.179443,244.146332 578.200073,245.595261 
	C579.355530,247.495285 578.629333,249.465775 579.655396,251.359650 
	C579.207336,253.596649 580.623169,254.816101 581.385986,256.635895 
	C581.157043,257.388336 580.696899,257.663574 579.743164,257.814911 
	C576.188354,256.332977 574.247803,257.193848 572.714600,260.459778 
	C559.749329,288.078491 549.347107,316.566223 546.669983,347.140472 
	C544.220947,375.108704 550.697815,401.091095 567.955688,424.234344 
	C568.409851,424.660706 568.601746,424.817993 569.047974,425.243103 
	C569.745728,426.084961 570.087708,426.719940 570.568726,427.673035 
	C571.280457,429.458008 572.193604,430.679474 573.602905,431.915405 
	C574.110352,432.383698 574.202515,432.941589 574.668945,432.884674 
	C574.996643,432.844696 574.910950,432.584717 574.288513,432.210205 
	C573.975891,431.538757 573.868286,431.113678 573.730286,430.324005 
	C571.275879,419.943756 568.313049,410.043427 567.260071,399.732819 
	C566.068848,388.068573 566.188782,376.471161 568.955322,365.007507 
	C569.460205,362.915710 569.868591,360.327606 572.399719,360.010925 
	C574.668213,359.727081 575.659119,361.977722 576.627380,363.727539 
	C585.588623,379.923157 598.867981,391.754700 614.487000,401.225098 
	C615.341125,401.743011 616.206848,402.246979 617.114014,402.665375 
	C622.516113,405.156647 625.442871,403.113525 625.039246,397.053955 
	C624.455994,388.299500 621.801331,380.057281 618.346191,372.091980 
	C614.341431,362.859467 611.780212,353.265381 610.180298,343.364166 
	C606.618286,321.320557 609.894775,300.377716 622.013245,281.580963 
	C629.754822,269.573181 629.993896,257.676483 625.492004,244.927002 
	C624.882019,243.199570 624.186707,241.496429 623.830750,239.695831 
	C623.514404,238.095474 622.678589,236.188126 624.226318,235.012131 
	C625.856262,233.773697 627.352905,235.244461 628.694702,236.159576 
	C631.032898,237.754395 633.159058,239.654251 635.527039,241.197800 
	C645.317383,247.579575 655.222229,253.700607 667.249451,254.986725 
	C675.139465,255.830460 680.269470,253.219421 684.067566,246.143646 
	C686.939026,240.794083 688.191956,234.922028 689.506775,229.067963 
	C689.922852,227.215317 689.708862,224.571899 692.421143,224.520874 
	C695.360535,224.465607 695.350464,227.275055 695.857910,229.263901 
	C696.924377,233.443695 695.899353,237.745941 696.117188,242.551239 
	C700.708740,239.537582 702.315979,235.158722 704.347412,231.060684 
	C705.456970,228.822128 705.832458,224.784454 708.761597,225.459381 
	C711.187683,226.018387 709.656189,229.852478 709.940308,232.224304 
	C709.999023,232.713928 709.829956,233.212662 709.654175,234.087463 
	C709.653748,247.069122 704.773499,258.131866 698.607300,268.673431 
	C692.562744,279.007080 692.018188,288.974121 697.683228,299.845917 
	C703.819702,311.622437 705.496033,324.851959 707.559631,337.811981 
	C709.766357,351.671387 709.695496,365.663422 709.456177,379.674164 
	C709.265625,390.823730 705.565125,401.246552 703.714478,412.042908 
	C702.704590,417.934235 701.411621,423.784424 701.408691,429.820404 
	C701.406372,434.679260 702.552124,438.850281 706.255066,442.409668 
	C710.395020,446.389130 710.203796,451.379517 706.413330,455.774200 
	C701.161194,461.863617 693.775757,462.783661 686.532837,463.755707 
	C678.641541,464.814758 670.961731,463.719574 663.619873,460.442719 
	C655.732117,456.922150 648.153748,457.236511 641.014221,462.503815 
	C637.088440,465.400116 632.509583,466.044159 627.771545,466.100494 
	C611.331421,466.295837 594.862549,467.660370 578.904785,461.636292 
	C562.022217,455.263153 547.932678,444.966583 535.742859,431.986420 
	C508.724030,403.215820 490.804321,368.781311 475.191376,333.030029 
	C466.130005,312.280975 458.980652,290.820862 455.364502,268.409546 
	C451.790009,246.256470 450.624207,224.064713 457.780884,202.236130 
	C459.404358,197.284424 461.797760,192.771637 465.262268,188.435669 
	C466.414032,186.283478 468.014435,185.003067 469.836578,183.479401 
	C470.534363,182.914581 470.949158,182.537949 471.593109,181.998627 
	C472.840210,181.298019 473.550140,180.346527 474.867096,179.646729 
	C475.877228,179.024063 476.579712,178.551712 477.591919,177.990692 
	C481.540161,175.926086 485.324371,174.369980 489.836182,173.809021 
	C491.226715,173.625580 492.260864,173.516663 493.686218,173.394440 
	C495.917725,172.872375 497.762177,172.873932 499.993408,173.452576 
	C501.342133,173.578735 502.307861,173.588623 503.628967,173.672226 
	C511.155701,175.511795 518.408997,177.054352 525.022949,181.449661 
	C528.169250,183.500137 530.602173,185.800308 532.810730,188.793259 
	C535.252197,191.947113 536.916931,195.152344 538.410156,198.843964 
	C538.685547,199.556213 538.816406,199.959763 538.985107,200.680511 
	C540.883850,205.338104 542.614807,209.718216 543.222168,214.831604 
	C543.419373,215.606491 543.532104,216.017136 543.644043,216.748886 
	C543.915833,219.517700 544.886169,221.834946 545.011353,224.648743 
	C545.109802,225.672394 545.194702,226.360092 545.276611,227.394409 
	C546.682495,230.507675 545.518555,233.561920 546.380432,236.780334 
	C546.608276,238.513657 546.697693,239.871826 546.776978,241.640198 
	C547.735535,256.220123 547.858032,270.394257 547.026428,284.575775 
	C546.939697,286.054688 546.913757,287.548615 547.333374,289.433472 
	C547.740601,290.645538 547.677795,291.451965 547.502136,292.621643 
	C547.466492,293.449615 547.358826,293.925171 547.413879,294.379120 
	C547.468018,294.825470 546.855408,295.221863 547.348450,295.667938 
	C547.528992,295.227295 547.538147,294.760498 547.551208,293.962982 
	C547.524414,293.176147 547.544861,292.723206 547.735352,291.947632 
	C551.669861,286.307587 552.788574,279.672699 556.437500,273.915833 
	C556.807434,272.976135 557.157959,272.395020 557.671326,271.515564 
	C558.003967,270.022522 558.848328,269.201416 559.478577,267.916687 
	C559.829712,266.986633 560.175232,266.398468 560.693848,265.514526 
	C561.002502,264.023315 561.841675,263.212280 562.518494,261.951111 
	C563.062927,260.649109 563.558044,259.681610 564.209717,258.425446 
	C565.044067,256.872406 565.715088,255.604034 566.748779,254.198303 
	C566.951111,253.966629 567.048340,253.511459 567.157410,253.305878 
	C569.283813,250.020950 571.120789,246.831161 573.162109,243.366943 
	C573.304688,241.360687 573.316406,239.673752 573.414795,237.575027 
	C575.684326,230.978165 570.939148,226.751190 569.058472,221.353973 
	C568.866516,220.657349 568.745544,220.301270 568.597534,219.663177 
	C568.594482,218.561935 567.960999,218.040710 567.548828,217.109573 
	C567.333557,216.436539 567.228210,216.023285 567.119446,215.288330 
	C564.942261,210.581680 566.598816,206.175278 567.070374,201.401779 
	C567.122925,200.599838 567.147400,200.171753 567.260132,199.433960 
	C568.056396,198.005096 568.518738,196.719742 569.872192,195.687012 
	C573.098267,195.505203 576.026001,195.471817 579.377625,195.550995 
	C581.043823,196.042130 582.301819,196.086411 583.882019,195.763275 
	C587.367920,195.557495 590.267822,194.896927 592.064758,191.404144 
	C592.647949,190.533890 593.051392,189.986618 593.726746,189.218475 
	C596.793945,185.778732 599.639160,182.597076 602.732056,179.189392 
	C603.845703,178.197281 604.629150,177.340271 605.829956,176.430359 
	C607.552612,174.909500 608.992249,173.589386 610.731812,172.135559 
	C611.493652,171.512558 611.990784,171.064194 612.841064,170.519745 
	C613.567261,169.957382 614.004517,169.565521 614.718079,169.073669 
	C615.479187,168.510056 615.982483,168.069382 616.847473,167.551559 
z"/>
<path fill="#897262" opacity="1.000000" stroke="none" 
	d="
M709.885193,234.218201 
	C708.348328,231.773560 709.557861,228.852966 708.752686,225.663269 
	C706.090820,228.377853 705.837952,232.017944 704.138489,234.888000 
	C702.354675,237.900543 700.715149,240.982315 698.091675,243.376099 
	C697.129700,244.253891 696.107849,245.594650 694.686218,244.719788 
	C693.336182,243.888916 693.866577,242.278503 694.179504,241.056839 
	C695.365601,236.426102 695.272400,231.846222 694.013489,227.258072 
	C693.754578,226.314270 693.723755,225.047974 692.399658,225.192581 
	C691.159241,225.328064 691.185974,226.568405 691.060425,227.556274 
	C690.215515,234.202835 688.492554,240.645813 685.527344,246.625839 
	C680.925354,255.907120 672.494812,258.886383 660.926208,255.450851 
	C648.462646,251.749557 637.669556,244.947342 627.562561,236.947388 
	C626.709961,236.272522 626.118835,235.022430 624.518738,235.536880 
	C624.511536,240.943008 627.302979,245.653275 628.629822,250.710678 
	C631.470093,261.536530 630.007568,271.168549 623.994019,280.694153 
	C616.013245,293.335754 610.532837,307.197510 610.307678,322.307648 
	C610.072083,338.125824 612.032715,353.785187 618.369202,368.558960 
	C622.240173,377.584473 625.546753,386.738190 626.497192,396.635498 
	C626.806152,399.852325 626.488708,402.824585 624.083984,404.807220 
	C621.478821,406.955017 618.656494,405.157501 616.272705,403.792847 
	C598.655212,393.707214 583.699280,380.904877 574.461548,362.342102 
	C574.037903,361.490723 573.484314,360.583282 571.899658,360.422668 
	C569.257019,366.311310 568.583252,372.746185 568.094727,379.126953 
	C566.886658,394.905884 569.628235,410.235504 574.001099,425.328857 
	C574.508606,427.080414 575.306702,428.777832 574.609497,431.068481 
	C572.494019,430.993347 571.634521,429.416168 570.452332,427.707764 
	C569.871460,427.220093 569.592041,426.899597 569.143188,426.307800 
	C568.895020,426.103577 568.997559,426.000000 568.947449,426.052124 
	C560.385498,407.789612 555.280701,388.648682 554.585327,368.377411 
	C553.297913,330.848389 564.327332,296.472717 581.188721,263.565765 
	C581.944153,262.091492 582.626038,260.538452 584.604614,259.611511 
	C585.620667,260.294464 586.302185,260.909424 587.674805,260.948608 
	C588.931641,261.051392 589.612366,261.666962 590.725708,262.127502 
	C591.787720,262.436157 592.533875,262.647705 593.672119,262.839691 
	C594.602600,262.943787 595.130066,263.100616 595.879822,263.457153 
	C598.129517,263.707031 600.128479,263.842316 602.555176,263.933441 
	C603.646240,263.329956 604.319702,262.773163 603.224792,261.674927 
	C597.822754,260.300415 593.175659,258.325134 590.083801,253.270584 
	C588.535278,250.703293 588.980042,248.258331 589.486450,245.403900 
	C589.999756,244.160645 590.321838,243.337097 590.600952,242.179932 
	C590.824463,241.381271 591.077148,240.908447 591.472778,240.208969 
	C596.743774,228.974823 604.786438,220.142166 612.961121,211.411438 
	C616.132324,208.024506 619.341125,204.672836 622.847534,201.170410 
	C629.023743,195.565994 635.607056,191.361160 643.447266,189.287430 
	C645.199036,188.824081 646.773010,187.873856 648.567505,186.662552 
	C654.333008,186.344925 659.815186,186.227188 665.746094,186.291412 
	C666.930115,188.445557 665.399109,189.502289 664.445679,190.787598 
	C661.610229,194.610016 661.597473,196.939880 664.800415,200.459473 
	C669.463135,205.583298 675.133240,209.280197 681.775085,211.276215 
	C687.262207,212.925217 690.792297,211.394897 694.336548,206.864319 
	C697.069336,203.370987 698.192505,198.767578 702.302246,196.027435 
	C705.224731,197.971756 705.915100,200.991867 706.730408,203.762314 
	C709.627441,213.606934 711.763672,223.583389 709.885193,234.218201 
z"/>
<path fill="#F6F4F4" opacity="1.000000" stroke="none" 
	d="
M584.975708,259.298737 
	C579.875366,266.937073 576.513000,275.236816 573.052856,283.456940 
	C562.191833,309.258362 555.317627,335.941772 555.650269,364.174744 
	C555.886230,384.205261 559.970398,403.374756 568.262390,421.634369 
	C568.805603,422.830627 569.057251,424.159271 569.170898,425.765320 
	C567.270691,427.178131 566.783691,425.493103 566.292480,424.767059 
	C549.211914,399.521210 542.337646,371.915619 546.262024,341.488861 
	C550.098267,311.745148 560.352539,284.181976 573.093750,257.331726 
	C574.804749,253.726013 576.173401,253.588776 578.460754,257.060120 
	C580.058838,257.659851 581.082092,259.419861 583.086060,258.091675 
	C583.893677,258.311646 584.411987,258.681122 584.975708,259.298737 
z"/>
<path fill="#3A2B26" opacity="1.000000" stroke="none" 
	d="
M702.675659,195.612976 
	C700.072327,200.051682 697.623108,204.157257 694.867188,208.045441 
	C691.277405,213.109924 686.795654,214.350769 680.844482,212.343109 
	C676.072876,210.733353 671.759094,208.263123 667.834229,205.171082 
	C659.326050,198.468277 659.045288,195.109253 666.143921,186.802185 
	C672.542603,185.280167 678.528809,182.579224 685.018127,181.968903 
	C686.336121,181.844955 687.640564,181.564713 688.959412,181.462784 
	C702.725952,180.398941 703.848267,181.526398 702.675659,195.612976 
z"/>
<path fill="#3E2F2A" opacity="1.000000" stroke="none" 
	d="
M648.476562,186.365845 
	C648.683411,187.366302 649.092957,188.562134 647.751587,188.899979 
	C638.808105,191.152542 631.090210,195.807663 623.435425,201.081512 
	C623.721313,198.272018 624.176941,195.545563 623.028259,192.770401 
	C621.237427,188.444000 620.331726,184.042923 624.574280,180.579849 
	C627.717224,178.014313 635.509949,178.812180 639.391113,182.093262 
	C641.987366,184.288055 644.580017,186.158707 648.476562,186.365845 
z"/>
<path fill="#897262" opacity="1.000000" stroke="none" 
	d="
M556.224670,273.792847 
	C554.987122,280.055908 551.614136,285.802216 548.864380,291.987732 
	C548.005188,292.124634 547.598999,291.947937 547.062866,291.226166 
	C545.497620,287.423950 546.298096,283.758331 546.282837,280.149109 
	C546.230103,267.674713 546.300049,255.199829 546.545044,242.387772 
	C549.261597,255.709641 548.282104,269.458038 547.753174,283.187836 
	C547.677612,285.150391 547.095337,287.088501 548.495667,289.813293 
	C551.163391,284.196198 553.577942,279.112274 556.224670,273.792847 
z"/>
<path fill="#897262" opacity="1.000000" stroke="none" 
	d="
M628.140015,167.262604 
	C636.761108,161.159256 646.745178,158.726883 657.393494,159.512329 
	C660.432678,159.736496 663.720825,159.959625 666.796265,161.823425 
	C653.550049,159.329117 640.693542,160.931396 628.140015,167.262604 
z"/>
<path fill="#897262" opacity="1.000000" stroke="none" 
	d="
M658.646179,156.057877 
	C652.896301,157.360840 646.795471,156.635590 640.382568,156.469543 
	C646.104797,154.122482 652.211670,154.522186 658.646179,156.057877 
z"/>
<path fill="#897262" opacity="1.000000" stroke="none" 
	d="
M525.181519,181.308578 
	C518.398743,179.180939 511.680237,176.012711 504.215820,174.039856 
	C511.654022,174.247940 518.491394,177.141754 525.181519,181.308578 
z"/>
<path fill="#897262" opacity="1.000000" stroke="none" 
	d="
M568.850952,221.257797 
	C571.950012,225.879623 576.165161,230.339340 573.810791,236.996857 
	C574.048035,231.288071 570.871765,226.550858 568.850952,221.257797 
z"/>
<path fill="#897262" opacity="1.000000" stroke="none" 
	d="
M566.911560,201.347748 
	C568.569641,205.446655 566.148865,209.977509 567.299866,214.683411 
	C564.315979,210.612213 565.982849,206.126282 566.911560,201.347748 
z"/>
<path fill="#897262" opacity="1.000000" stroke="none" 
	d="
M543.430542,214.806778 
	C540.833313,211.054428 540.541809,206.196747 538.962891,201.389557 
	C542.113403,204.937531 542.204590,209.890106 543.430542,214.806778 
z"/>
<path fill="#897262" opacity="1.000000" stroke="none" 
	d="
M668.819580,162.761826 
	C669.278442,162.229721 669.973267,161.931061 670.855347,161.301697 
	C673.600586,161.411530 675.282837,163.065796 677.268860,165.436920 
	C673.896118,165.361984 671.538879,163.945358 668.819580,162.761826 
z"/>
<path fill="#897262" opacity="1.000000" stroke="none" 
	d="
M489.818176,173.585815 
	C486.349945,175.134583 482.507355,176.534683 478.283203,177.918396 
	C481.177612,174.936539 485.285919,174.122711 489.818176,173.585815 
z"/>
<path fill="#897262" opacity="1.000000" stroke="none" 
	d="
M573.049500,243.284637 
	C572.932495,247.128952 570.033936,249.832047 567.589233,253.028564 
	C568.504944,249.555771 570.606201,246.510208 573.049500,243.284637 
z"/>
<path fill="#897262" opacity="1.000000" stroke="none" 
	d="
M538.603577,198.795502 
	C535.968140,196.473221 534.841919,192.927582 532.982544,189.449066 
	C536.001221,191.511932 537.068298,195.132751 538.603577,198.795502 
z"/>
<path fill="#897262" opacity="1.000000" stroke="none" 
	d="
M670.844788,160.685135 
	C667.713684,159.688507 664.404602,158.414093 660.962280,156.826920 
	C664.525146,156.758621 667.614380,158.536530 670.844788,160.685135 
z"/>
<path fill="#897262" opacity="1.000000" stroke="none" 
	d="
M546.648804,236.731949 
	C544.035278,234.659302 545.372498,231.475464 545.126587,228.172012 
	C547.141479,230.356796 546.579102,233.399536 546.648804,236.731949 
z"/>
<path fill="#897262" opacity="1.000000" stroke="none" 
	d="
M545.169556,224.677338 
	C543.484863,222.766052 542.898254,220.315079 543.439087,217.354553 
	C544.999451,219.320343 545.393799,221.790924 545.169556,224.677338 
z"/>
<path fill="#F6F4F4" opacity="1.000000" stroke="none" 
	d="
M589.327759,245.095459 
	C589.731140,247.360458 589.784546,249.736710 589.850342,252.560608 
	C586.421570,250.764633 587.850769,247.968536 589.327759,245.095459 
z"/>
<path fill="#897262" opacity="1.000000" stroke="none" 
	d="
M469.807251,183.361725 
	C469.582031,185.549088 467.592041,186.574249 465.799927,188.101410 
	C465.888733,185.803833 467.908081,184.800171 469.807251,183.361725 
z"/>
<path fill="#897262" opacity="1.000000" stroke="none" 
	d="
M500.141479,173.327713 
	C498.517883,174.191528 496.623566,174.009125 494.403168,173.600525 
	C495.962341,172.132858 497.934235,172.605911 500.141479,173.327713 
z"/>
<path fill="#897262" opacity="1.000000" stroke="none" 
	d="
M636.865967,156.589661 
	C635.638855,158.539795 633.259033,158.756958 630.896423,159.563049 
	C632.084351,157.516617 634.471924,157.333084 636.865967,156.589661 
z"/>
<path fill="#897262" opacity="1.000000" stroke="none" 
	d="
M583.141357,257.812866 
	C583.259583,258.722382 583.123840,260.184418 583.030823,260.181702 
	C581.301514,260.131195 579.668884,259.739807 578.762878,257.623291 
	C579.339050,257.227356 579.967224,257.174805 581.062134,257.043457 
	C581.988342,257.204285 582.447815,257.443909 583.141357,257.812866 
z"/>
<path fill="#F6F4F4" opacity="1.000000" stroke="none" 
	d="
M578.709595,241.935303 
	C578.038696,240.510223 578.255798,239.046875 579.023010,237.350250 
	C580.335632,238.739090 580.555176,240.340942 578.709595,241.935303 
z"/>
<path fill="#F6F4F4" opacity="1.000000" stroke="none" 
	d="
M579.782227,251.303986 
	C578.169617,250.374893 578.338745,248.505859 578.244629,246.361725 
	C581.016724,246.922440 579.726562,249.129028 579.782227,251.303986 
z"/>
<path fill="#F6F4F4" opacity="1.000000" stroke="none" 
	d="
M602.953003,262.103943 
	C604.046082,261.264160 605.325073,261.035217 605.650330,262.413208 
	C606.031128,264.026367 604.633606,263.979218 603.270020,263.982117 
	C602.972717,263.492615 602.962646,263.095886 602.953003,262.103943 
z"/>
<path fill="#897262" opacity="1.000000" stroke="none" 
	d="
M583.772278,195.514160 
	C582.999451,197.353912 581.562073,196.997406 579.935547,195.925598 
	C580.985657,195.556381 582.169739,195.449188 583.772278,195.514160 
z"/>
<path fill="#897262" opacity="1.000000" stroke="none" 
	d="
M569.855408,195.450745 
	C569.422729,196.692276 568.674927,197.845963 567.637817,199.061951 
	C567.061096,197.277252 568.287292,196.312241 569.855408,195.450745 
z"/>
<path fill="#897262" opacity="1.000000" stroke="none" 
	d="
M566.663330,254.098541 
	C566.945862,255.623535 566.134766,256.894745 564.689392,258.076935 
	C564.621826,256.621643 565.285645,255.316422 566.663330,254.098541 
z"/>
<path fill="#897262" opacity="1.000000" stroke="none" 
	d="
M559.255493,267.780945 
	C560.187439,269.040192 559.316467,269.977753 558.103271,271.054016 
	C557.241699,269.774963 558.595642,269.051392 559.255493,267.780945 
z"/>
<path fill="#897262" opacity="1.000000" stroke="none" 
	d="
M562.316040,261.794556 
	C563.205994,263.078888 562.263672,263.966156 561.124573,265.047150 
	C560.347168,263.797668 561.463257,262.980042 562.316040,261.794556 
z"/>
<path fill="#F6F4F4" opacity="1.000000" stroke="none" 
	d="
M590.956299,261.969330 
	C589.910889,262.737610 589.185852,262.000122 588.224121,261.150482 
	C589.490540,259.321289 590.120972,260.733521 590.956299,261.969330 
z"/>
<path fill="#897262" opacity="1.000000" stroke="none" 
	d="
M616.114380,175.445816 
	C616.214844,174.166885 617.122314,173.392197 618.691284,173.000916 
	C618.564026,174.280258 617.525330,174.892181 616.114380,175.445816 
z"/>
<path fill="#897262" opacity="1.000000" stroke="none" 
	d="
M622.855469,163.471954 
	C622.762756,164.837921 621.730042,165.522949 620.088135,165.827728 
	C620.239502,164.458496 621.363159,163.943481 622.855469,163.471954 
z"/>
<path fill="#897262" opacity="1.000000" stroke="none" 
	d="
M474.862701,179.479141 
	C474.675568,180.754578 473.760925,181.537766 472.139099,181.855286 
	C472.283997,180.529999 473.341217,179.908478 474.862701,179.479141 
z"/>
<path fill="#897262" opacity="1.000000" stroke="none" 
	d="
M605.808350,176.307495 
	C605.884094,177.681961 604.859375,178.394852 603.300903,178.936798 
	C603.234375,177.529709 604.424377,177.011703 605.808350,176.307495 
z"/>
<path fill="#F6F4F4" opacity="1.000000" stroke="none" 
	d="
M591.353271,240.008789 
	C591.420410,240.500732 591.246826,241.031403 590.815552,241.704193 
	C589.818420,240.961777 590.169739,240.413513 591.353271,240.008789 
z"/>
<path fill="#897262" opacity="1.000000" stroke="none" 
	d="
M616.849609,167.362671 
	C617.027405,168.314362 616.430115,168.787796 615.296936,169.008728 
	C615.515747,168.427582 616.037048,167.881470 616.849609,167.362671 
z"/>
<path fill="#897262" opacity="1.000000" stroke="none" 
	d="
M623.061584,170.288498 
	C623.312683,169.751801 623.832214,169.300751 624.619873,168.896790 
	C624.657898,169.735672 624.149292,170.224106 623.061584,170.288498 
z"/>
<path fill="#F6F4F4" opacity="1.000000" stroke="none" 
	d="
M596.044800,263.273499 
	C595.444458,263.908203 594.835144,263.752014 594.169373,263.051270 
	C594.765015,262.025482 595.392456,262.129211 596.044800,263.273499 
z"/>
<path fill="#897262" opacity="1.000000" stroke="none" 
	d="
M567.364258,217.141144 
	C568.511475,217.048233 568.837708,217.788254 568.701111,219.075226 
	C568.143494,218.731613 567.716553,218.082047 567.364258,217.141144 
z"/>
<path fill="#897262" opacity="1.000000" stroke="none" 
	d="
M612.837891,170.332611 
	C613.027649,171.263519 612.441956,171.753677 611.334229,172.026489 
	C611.536499,171.439896 612.041077,170.877945 612.837891,170.332611 
z"/>
<path fill="#897262" opacity="1.000000" stroke="none" 
	d="
M593.665039,189.044540 
	C594.116028,189.907990 593.656799,190.536240 592.594482,191.063324 
	C592.651733,190.451401 593.016541,189.790054 593.665039,189.044540 
z"/>
<path fill="#F1F0EF" opacity="1.000000" stroke="none" 
	d="
M681.206665,278.713959 
	C678.949280,282.501831 675.559631,282.581238 672.231812,282.041504 
	C669.267090,281.560699 668.671570,278.912109 668.220886,276.368958 
	C668.047302,275.389313 667.691223,274.442841 667.501465,273.465149 
	C665.749634,264.439575 666.144714,263.752747 674.929871,262.807465 
	C681.671753,262.082031 687.190308,259.010101 692.186584,254.681000 
	C693.390076,253.638245 694.265686,252.116501 696.503601,251.669739 
	C694.009583,259.969666 691.657288,267.978485 687.933777,275.510620 
	C687.115173,277.166534 686.072449,278.681335 683.722778,279.252411 
	C682.139465,276.268951 684.023926,273.752899 685.200745,270.111847 
	C683.698059,273.551849 683.136780,276.258392 681.206665,278.713959 
z"/>
<path fill="#897262" opacity="1.000000" stroke="none" 
	d="
M681.260986,278.937744 
	C681.304382,274.659790 684.815735,271.391083 685.003418,266.970367 
	C686.659180,271.047424 683.931091,274.645660 683.497314,278.893127 
	C682.738525,279.170990 682.150635,279.047424 681.260986,278.937744 
z"/>
<path fill="#F1F0EF" opacity="1.000000" stroke="none" 
	d="
M569.859619,426.990509 
	C571.369446,428.150269 572.577271,429.684692 574.095947,431.339478 
	C574.487488,431.769257 574.558350,432.080872 574.364441,432.589264 
	C572.766418,431.468384 570.428528,431.220520 569.946167,428.600952 
	C569.791016,427.962952 569.674316,427.664093 569.859619,426.990509 
z"/>
<path fill="#897262" opacity="1.000000" stroke="none" 
	d="
M547.894592,293.736267 
	C548.181641,296.445221 548.181641,296.445221 545.869202,298.462921 
	C545.051697,296.943146 546.654663,295.806671 546.604187,294.253967 
	C547.054626,293.829315 547.294861,293.641083 547.894592,293.736267 
z"/>
<path fill="#FFFFFF" opacity="1.000000" stroke="none" 
	d="
M548.287109,293.689392 
	C548.013977,294.086548 547.773865,294.153442 547.174072,294.118896 
	C546.807678,293.257904 546.800964,292.498322 546.791992,291.358643 
	C547.349243,290.702118 547.808777,290.818604 548.350403,291.689270 
	C548.461792,292.485992 548.390930,292.922546 548.287109,293.689392 
z"/>
<path fill="#F6F4F4" opacity="1.000000" stroke="none" 
	d="
M570.058105,426.302185 
	C570.112427,426.889069 570.063232,427.162323 569.960876,427.848694 
	C569.400330,427.736298 568.893005,427.210846 568.640320,426.394470 
	C569.248230,426.065216 569.601440,426.026886 570.058105,426.302185 
z"/>
<path fill="#897262" opacity="1.000000" stroke="none" 
	d="
M574.105591,433.107361 
	C574.109558,432.783752 574.426270,432.622437 574.550964,432.747437 
	C574.960571,433.113525 575.510742,433.541718 575.491821,433.568481 
	C574.977417,434.297729 574.531921,433.884125 574.105591,433.107361 
z"/>
</svg>