<svg version="1.1" id="Layer_1" xmlns="http://www.w3.org/2000/svg" xmlns:xlink="http://www.w3.org/1999/xlink" x="0px" y="0px"
	 width="100%" viewBox="0 0 1200 1200" enable-background="new 0 0 1200 1200" xml:space="preserve">
<path fill="#FEFEFE" opacity="1.000000" stroke="none" 
	d="
M1201.000000,522.000000 
	C1201.000000,576.687561 1201.000000,631.375122 1200.631348,686.228638 
	C1199.509033,689.980957 1198.688477,693.554932 1198.013794,697.156189 
	C1195.544922,710.337158 1193.957275,723.749817 1190.504272,736.665283 
	C1184.253418,760.045959 1177.405029,783.296997 1169.881592,806.299744 
	C1160.338623,835.476929 1147.586060,863.338257 1132.985229,890.352112 
	C1117.315918,919.343018 1099.646118,946.981567 1079.551025,973.160645 
	C1064.454956,992.827271 1048.338257,1011.542725 1031.075317,1029.260254 
	C1021.520386,1039.066895 1011.345276,1048.308105 1001.030579,1057.324707 
	C989.860596,1067.088989 978.334595,1076.460327 966.730652,1085.710693 
	C941.950989,1105.464233 915.072693,1122.031738 887.323303,1137.219849 
	C864.737976,1149.581543 841.044067,1159.569702 816.742004,1167.847900 
	C777.146851,1181.335693 737.376465,1194.430908 695.468018,1199.090454 
	C694.914734,1199.152100 694.486572,1200.338623 694.000000,1201.000000 
	C635.979126,1201.000000 577.958191,1201.000000 519.771423,1200.631104 
	C518.764221,1199.842407 517.956543,1199.154785 517.076477,1199.044312 
	C508.509094,1197.969727 499.730865,1197.822021 491.391815,1195.826172 
	C468.745453,1190.406250 445.957062,1185.221680 423.840698,1178.046021 
	C401.791534,1170.892090 380.084839,1162.325684 358.976746,1152.731323 
	C338.972687,1143.638306 319.585205,1133.016724 300.589813,1121.930908 
	C285.027466,1112.848511 270.000336,1102.686768 255.535019,1091.929077 
	C238.311661,1079.120239 221.548523,1065.617065 205.336212,1051.550171 
	C194.010178,1041.722900 183.744370,1030.634033 173.373825,1019.756897 
	C163.955643,1009.878723 154.423233,1000.004272 146.036285,989.272339 
	C132.692444,972.197876 119.613411,954.840698 107.632034,936.799744 
	C96.892059,920.627991 87.140854,903.708923 78.138023,886.499878 
	C69.295090,869.596436 61.086521,852.247131 54.155926,834.486206 
	C45.602188,812.565674 37.962185,790.226318 31.192951,767.687805 
	C23.029209,740.506104 18.767244,712.439270 16.106510,684.210205 
	C14.532440,667.510071 13.246707,650.716003 13.153548,633.956787 
	C12.950101,597.356445 11.726260,560.702942 15.984268,524.204285 
	C17.420988,511.889038 17.600391,499.315155 20.254089,487.278320 
	C25.057159,465.492188 30.685680,443.841461 37.056362,422.457947 
	C47.891121,386.090515 62.250446,351.084290 80.672737,317.845276 
	C88.151329,304.351807 95.329498,290.603638 103.943802,277.848969 
	C116.070648,259.893524 129.013321,242.447571 142.353882,225.366989 
	C152.424332,212.473389 163.062424,199.900101 174.535049,188.255386 
	C189.363068,173.204971 204.888443,158.778244 220.832748,144.909821 
	C235.181473,132.429260 249.942032,120.264801 265.515167,109.383911 
	C293.214844,90.030273 321.994324,72.271080 353.239563,59.051796 
	C374.624573,50.004185 396.040833,40.905376 417.926514,33.203091 
	C437.866699,26.185499 458.376465,20.720243 478.787109,15.125021 
	C497.198181,10.077954 516.179565,8.244731 535.177979,7.063718 
	C546.240051,6.376054 557.343872,6.007421 568.426025,6.063161 
	C596.175110,6.202733 623.923462,6.610334 651.670349,7.025643 
	C663.423218,7.201558 675.188538,7.386823 686.917358,8.084945 
	C697.020020,8.686267 707.324280,8.968872 717.106689,11.248932 
	C738.362610,16.203175 759.597046,21.549913 780.362244,28.223707 
	C800.612488,34.732014 820.684692,42.163635 840.078491,50.874374 
	C864.363159,61.781876 888.404663,73.470795 911.577332,86.548019 
	C936.038208,100.352173 959.061707,116.570625 980.947815,134.338287 
	C1001.236450,150.809067 1020.700195,168.071335 1038.746582,187.034531 
	C1055.150269,204.271637 1070.480347,222.302933 1084.870605,241.238327 
	C1104.333984,266.849335 1121.547241,293.873566 1135.951660,322.566925 
	C1145.875732,342.335541 1155.340210,362.450409 1163.240479,383.087921 
	C1171.592651,404.905396 1178.300537,427.392700 1184.892334,449.832520 
	C1191.680176,472.939819 1196.849609,496.462555 1199.092651,520.532715 
	C1199.143433,521.076294 1200.338623,521.513245 1201.000000,522.000000 
M476.249207,1026.533203 
	C477.173157,1027.000977 478.097076,1027.468628 479.671753,1028.156250 
	C486.758789,1032.490479 493.701569,1037.084839 500.958954,1041.112061 
	C526.588867,1055.334839 553.292419,1067.058472 582.962097,1068.707642 
	C614.865295,1070.480957 646.842224,1071.085571 678.796631,1071.678345 
	C688.055664,1071.850098 697.710266,1071.534302 706.531677,1069.089844 
	C717.125244,1066.154419 727.190002,1061.053955 737.177551,1056.254028 
	C749.295837,1050.430054 761.714722,1047.880371 774.922119,1050.936279 
	C782.997253,1052.804688 791.066040,1054.828491 798.952209,1057.360474 
	C819.810852,1064.057373 840.540039,1070.068970 862.958069,1065.118408 
	C877.748596,1061.852051 892.704285,1059.512573 906.206360,1052.120605 
	C914.424866,1047.621216 921.040771,1041.567871 925.385559,1033.083374 
	C930.001160,1024.070068 930.067078,1015.648499 923.401123,1007.524109 
	C921.305664,1004.970093 920.141479,1001.601746 917.889893,999.234985 
	C909.339966,990.247620 907.402222,979.095215 907.000305,967.437683 
	C906.329590,947.983582 910.229004,929.037354 913.497864,910.004456 
	C918.141296,882.968567 923.536377,855.999146 926.638611,828.776672 
	C930.681152,793.303345 930.008545,757.612122 927.144348,721.992249 
	C923.987671,682.734558 917.770813,644.032166 905.963867,606.394775 
	C900.248230,588.174805 893.788452,570.187439 887.607971,552.114441 
	C882.334290,536.692993 882.440002,521.459351 888.784546,506.330322 
	C896.041626,489.025391 903.088318,471.631531 910.438843,454.366791 
	C916.819397,439.380249 924.481628,424.676727 925.936646,408.248413 
	C927.903259,386.043030 928.647949,363.729431 929.887024,341.460602 
	C929.895630,341.307098 929.484619,341.130310 929.292542,340.982147 
	C928.881226,341.718506 928.477600,342.440979 927.528442,342.513977 
	C927.013794,336.060455 926.515015,329.605652 925.981567,323.153687 
	C924.132324,300.788452 918.445129,279.413727 909.234009,258.085449 
	C909.657349,254.319473 910.303589,250.562668 910.458862,246.785660 
	C910.810120,238.244110 912.000061,229.489395 906.044495,221.407913 
	C904.268616,216.169098 899.777893,215.389267 895.213074,215.051331 
	C871.123840,213.268005 847.281921,215.216827 823.858582,220.959549 
	C800.745178,226.626266 777.456360,229.830856 753.654358,227.948959 
	C741.108398,226.957016 728.935303,224.737457 718.661743,216.434799 
	C715.610046,213.968536 711.858948,212.204376 708.190979,210.695358 
	C698.144531,206.562210 687.799316,204.470795 677.056641,207.921051 
	C666.613770,211.274979 663.414673,215.279510 663.965393,226.187958 
	C664.585693,238.475174 666.130859,250.713806 666.907104,262.996735 
	C667.054199,265.324829 666.047058,268.191162 664.604736,270.063782 
	C660.852295,274.935822 656.474060,279.319550 652.500732,284.029022 
	C633.283203,306.806793 613.700256,329.294373 595.086121,352.556427 
	C583.636658,366.864746 574.220642,382.681366 568.724426,400.435181 
	C561.029236,425.291870 568.999207,442.192474 592.999817,452.234344 
	C596.375183,453.646576 599.759216,455.057220 603.036011,456.677368 
	C604.494690,457.398560 605.697083,458.638153 607.015808,459.642426 
	C606.837158,460.114838 606.658447,460.587219 606.479797,461.059601 
	C603.255371,460.873749 599.981140,460.984589 596.814880,460.452606 
	C579.807739,457.594971 563.524658,452.672028 549.000000,443.000000 
	C549.000000,443.000000 548.994812,443.009094 548.972656,442.460175 
	C548.673035,442.273254 548.373474,442.086334 547.711853,441.313751 
	C545.795410,436.749329 543.273743,432.338074 542.072571,427.592560 
	C537.965332,411.365997 539.990295,395.164520 543.605957,379.163605 
	C552.674805,339.029907 570.804016,302.934418 593.728149,269.124847 
	C617.307129,234.349579 645.332642,203.845734 681.257629,181.391876 
	C711.018738,162.790619 743.361511,153.271912 778.597473,157.070465 
	C792.881042,158.610321 806.906494,162.545395 821.672302,165.823944 
	C824.232727,165.823944 826.793152,165.823944 830.090393,165.823944 
	C828.984009,164.457260 828.502563,163.577454 827.777100,163.008881 
	C815.271729,153.207870 802.297119,143.879974 786.664856,140.070923 
	C766.048035,135.047272 744.926514,136.589493 724.008057,137.796371 
	C715.490601,138.287766 706.399475,139.427658 698.796021,142.933075 
	C683.596680,149.940430 668.678711,157.914993 654.652954,167.040131 
	C620.229248,189.436127 591.146240,217.618134 567.704773,251.451721 
	C565.328369,254.881668 562.656006,256.356049 558.249146,256.327850 
	C542.764404,256.228729 527.272461,256.557587 511.790710,256.989929 
	C504.807922,257.184967 501.883423,259.633942 500.387024,266.002441 
	C495.651611,286.155914 495.108948,306.153442 502.422272,325.962067 
	C507.660797,340.150940 512.540161,354.473358 517.494690,368.765717 
	C520.453857,377.302094 520.158020,385.719452 516.258057,393.973297 
	C511.356110,404.347656 506.788208,414.886963 501.646942,425.139832 
	C488.072876,452.209747 474.117981,479.089294 460.633759,506.203308 
	C455.870605,515.781067 452.031494,525.818481 447.545776,536.164185 
	C446.909973,534.622925 446.544312,533.736633 446.199768,531.931824 
	C444.776764,481.354919 443.584167,430.769958 441.819519,380.204956 
	C441.094666,359.434357 439.177094,338.702820 433.973969,318.444641 
	C427.229706,292.186035 419.640015,266.254425 405.042358,242.399033 
	C404.641083,241.991760 404.239807,241.584488 403.940643,241.101578 
	C403.940643,241.101578 403.816986,241.130920 403.926300,240.422668 
	C398.647797,230.520126 391.406128,222.331802 381.913086,216.369919 
	C352.637390,197.984024 321.077820,187.546600 286.075653,188.757721 
	C249.412704,190.026291 219.746307,205.568985 197.420975,233.951172 
	C174.717712,262.813843 164.084427,296.991882 162.445602,333.159302 
	C161.000549,365.050781 162.584946,397.098816 163.381271,429.063995 
	C163.749649,443.851410 164.215424,458.820343 166.780518,473.327972 
	C171.144470,498.009613 176.248566,522.647888 182.746323,546.846680 
	C196.489685,598.029175 215.642929,647.343384 237.144104,695.736206 
	C268.094543,765.396301 303.936371,832.377563 347.136292,895.292175 
	C375.465057,936.549133 407.249298,974.697083 447.034973,1005.560547 
	C453.152557,1010.306213 459.715210,1014.478149 466.000000,1019.000000 
	C466.000000,1019.000000 466.077057,1018.920227 466.136902,1019.602722 
	C467.469849,1020.339539 468.802765,1021.076416 470.100372,1021.933350 
	C470.100372,1021.933350 470.182556,1021.838989 470.237549,1022.502563 
	C471.191010,1022.959778 472.144470,1023.417053 473.030121,1023.997009 
	C473.030121,1023.997009 473.117767,1023.886963 473.237762,1024.535278 
	C474.189575,1024.984009 475.141388,1025.432739 476.025360,1025.999512 
	C476.025360,1025.999512 476.110809,1025.892700 476.249207,1026.533203 
z"/>
<path fill="#000000" opacity="1.000000" stroke="none" 
	d="
M1201.000000,521.531372 
	C1200.338623,521.513245 1199.143433,521.076294 1199.092651,520.532715 
	C1196.849609,496.462555 1191.680176,472.939819 1184.892334,449.832520 
	C1178.300537,427.392700 1171.592651,404.905396 1163.240479,383.087921 
	C1155.340210,362.450409 1145.875732,342.335541 1135.951660,322.566925 
	C1121.547241,293.873566 1104.333984,266.849335 1084.870605,241.238327 
	C1070.480347,222.302933 1055.150269,204.271637 1038.746582,187.034531 
	C1020.700195,168.071335 1001.236450,150.809067 980.947815,134.338287 
	C959.061707,116.570625 936.038208,100.352173 911.577332,86.548019 
	C888.404663,73.470795 864.363159,61.781876 840.078491,50.874374 
	C820.684692,42.163635 800.612488,34.732014 780.362244,28.223707 
	C759.597046,21.549913 738.362610,16.203175 717.106689,11.248932 
	C707.324280,8.968872 697.020020,8.686267 686.917358,8.084945 
	C675.188538,7.386823 663.423218,7.201558 651.670349,7.025643 
	C623.923462,6.610334 596.175110,6.202733 568.426025,6.063161 
	C557.343872,6.007421 546.240051,6.376054 535.177979,7.063718 
	C516.179565,8.244731 497.198181,10.077954 478.787109,15.125021 
	C458.376465,20.720243 437.866699,26.185499 417.926514,33.203091 
	C396.040833,40.905376 374.624573,50.004185 353.239563,59.051796 
	C321.994324,72.271080 293.214844,90.030273 265.515167,109.383911 
	C249.942032,120.264801 235.181473,132.429260 220.832748,144.909821 
	C204.888443,158.778244 189.363068,173.204971 174.535049,188.255386 
	C163.062424,199.900101 152.424332,212.473389 142.353882,225.366989 
	C129.013321,242.447571 116.070648,259.893524 103.943802,277.848969 
	C95.329498,290.603638 88.151329,304.351807 80.672737,317.845276 
	C62.250446,351.084290 47.891121,386.090515 37.056362,422.457947 
	C30.685680,443.841461 25.057159,465.492188 20.254089,487.278320 
	C17.600391,499.315155 17.420988,511.889038 15.984268,524.204285 
	C11.726260,560.702942 12.950101,597.356445 13.153548,633.956787 
	C13.246707,650.716003 14.532440,667.510071 16.106510,684.210205 
	C18.767244,712.439270 23.029209,740.506104 31.192951,767.687805 
	C37.962185,790.226318 45.602188,812.565674 54.155926,834.486206 
	C61.086521,852.247131 69.295090,869.596436 78.138023,886.499878 
	C87.140854,903.708923 96.892059,920.627991 107.632034,936.799744 
	C119.613411,954.840698 132.692444,972.197876 146.036285,989.272339 
	C154.423233,1000.004272 163.955643,1009.878723 173.373825,1019.756897 
	C183.744370,1030.634033 194.010178,1041.722900 205.336212,1051.550171 
	C221.548523,1065.617065 238.311661,1079.120239 255.535019,1091.929077 
	C270.000336,1102.686768 285.027466,1112.848511 300.589813,1121.930908 
	C319.585205,1133.016724 338.972687,1143.638306 358.976746,1152.731323 
	C380.084839,1162.325684 401.791534,1170.892090 423.840698,1178.046021 
	C445.957062,1185.221680 468.745453,1190.406250 491.391815,1195.826172 
	C499.730865,1197.822021 508.509094,1197.969727 517.076477,1199.044312 
	C517.956543,1199.154785 518.764221,1199.842407 519.302734,1200.631104 
	C346.355194,1201.000000 173.710403,1201.000000 1.032805,1201.000000 
	C1.032805,801.072510 1.032805,401.145081 1.032805,1.108801 
	C400.876770,1.108801 800.753540,1.108801 1201.000000,1.108801 
	C1201.000000,174.354050 1201.000000,347.708374 1201.000000,521.531372 
z"/>
<path fill="#000000" opacity="1.000000" stroke="none" 
	d="
M694.468628,1201.000000 
	C694.486572,1200.338623 694.914734,1199.152100 695.468018,1199.090454 
	C737.376465,1194.430908 777.146851,1181.335693 816.742004,1167.847900 
	C841.044067,1159.569702 864.737976,1149.581543 887.323303,1137.219849 
	C915.072693,1122.031738 941.950989,1105.464233 966.730652,1085.710693 
	C978.334595,1076.460327 989.860596,1067.088989 1001.030579,1057.324707 
	C1011.345276,1048.308105 1021.520386,1039.066895 1031.075317,1029.260254 
	C1048.338257,1011.542725 1064.454956,992.827271 1079.551025,973.160645 
	C1099.646118,946.981567 1117.315918,919.343018 1132.985229,890.352112 
	C1147.586060,863.338257 1160.338623,835.476929 1169.881592,806.299744 
	C1177.405029,783.296997 1184.253418,760.045959 1190.504272,736.665283 
	C1193.957275,723.749817 1195.544922,710.337158 1198.013794,697.156189 
	C1198.688477,693.554932 1199.509033,689.980957 1200.631348,686.697266 
	C1201.000000,858.259888 1201.000000,1029.519775 1201.000000,1201.000000 
	C1032.312500,1201.000000 863.624939,1201.000000 694.468628,1201.000000 
z"/>
<path fill="#45352F" opacity="1.000000" stroke="none" 
	d="
M821.049377,165.390564 
	C806.906494,162.545395 792.881042,158.610321 778.597473,157.070465 
	C743.361511,153.271912 711.018738,162.790619 681.257629,181.391876 
	C645.332642,203.845734 617.307129,234.349579 593.728149,269.124847 
	C570.804016,302.934418 552.674805,339.029907 543.605957,379.163605 
	C539.990295,395.164520 537.965332,411.365997 542.072571,427.592560 
	C543.273743,432.338074 545.795410,436.749329 547.905945,441.890015 
	C548.398315,442.647217 548.696533,442.828156 548.994812,443.009094 
	C548.994812,443.009094 549.000000,443.000000 548.941895,443.392548 
	C549.660645,446.627228 550.437561,449.469360 551.214478,452.311493 
	C550.863525,452.430481 550.512634,452.549469 550.161682,452.668488 
	C544.021179,446.334290 537.880737,440.000061 530.817322,432.713837 
	C529.869690,435.825378 529.422119,437.294861 528.644043,438.898010 
	C527.516235,440.487457 526.671509,441.919464 525.928711,443.402557 
	C501.064056,493.047211 482.646423,545.204773 465.984253,598.019226 
	C457.471405,625.002563 449.289154,652.314941 447.290680,680.568176 
	C445.037689,712.419800 444.976837,744.451721 444.763092,776.410583 
	C444.668823,790.504944 445.445404,804.796021 447.753479,818.677429 
	C453.285583,851.949280 466.464294,882.626282 482.586548,912.027344 
	C488.875153,923.495483 496.169495,934.412048 503.002899,945.903564 
	C510.280334,956.648499 517.353699,967.255310 528.840759,975.498657 
	C528.840759,972.514709 529.110291,970.559265 528.791382,968.705139 
	C527.750488,962.653748 526.878845,956.534058 525.259644,950.627747 
	C514.604797,911.762451 509.627411,872.093323 509.265900,831.911377 
	C509.112274,814.838074 510.215729,797.644226 512.315369,780.699402 
	C513.654724,769.889893 517.868469,759.436462 520.793518,748.823425 
	C521.362976,748.874573 521.932434,748.925720 522.501953,748.976868 
	C523.284790,750.172241 524.120239,751.336792 524.842224,752.567871 
	C530.651367,762.473389 535.723022,772.901672 542.358582,782.216675 
	C569.697510,820.595093 603.168701,852.761414 642.976990,878.034851 
	C650.288574,882.676697 658.880493,885.488464 667.152954,888.363831 
	C672.543579,890.237610 678.070068,887.000244 679.889343,881.552673 
	C681.080444,877.985962 681.934753,874.084839 681.861511,870.354736 
	C681.461304,849.965332 675.142883,830.809631 668.849121,811.711487 
	C661.407593,789.130310 652.936279,766.865295 646.179749,744.086975 
	C634.909058,706.090454 634.992981,667.008057 636.749207,627.814575 
	C638.077942,598.161438 646.451843,570.601929 659.750305,544.337769 
	C667.191833,529.640869 674.831421,515.044189 682.273315,500.347443 
	C691.937927,481.261230 695.120483,461.189301 690.002136,440.296631 
	C685.853516,423.362152 680.906006,406.624176 676.386597,389.779266 
	C675.471802,386.369598 674.887878,382.871216 673.849243,377.995331 
	C677.887512,379.659149 680.799438,380.411774 683.219299,381.942322 
	C689.683167,386.030609 696.038086,390.310211 702.254150,394.767822 
	C727.000732,412.513977 753.139099,427.785492 782.156372,437.304626 
	C792.616455,440.736084 803.794739,442.542267 814.789734,443.630615 
	C827.325134,444.871460 837.137207,437.762512 844.367126,428.641571 
	C861.677368,406.803833 872.322205,382.003967 874.108154,353.806488 
	C874.325012,350.382874 875.065430,346.875000 876.260986,343.666168 
	C877.307983,340.856018 879.459229,340.244690 881.238708,343.414948 
	C882.132263,345.006927 883.102905,346.631683 883.582886,348.367615 
	C887.246765,361.619232 888.499634,375.131775 887.535583,388.836578 
	C887.056396,395.649048 886.395142,402.448700 885.759033,409.926605 
	C908.566528,392.332214 919.228699,368.316803 928.073975,343.163452 
	C928.477600,342.440979 928.881226,341.718506 929.292542,340.982147 
	C929.484619,341.130310 929.895630,341.307098 929.887024,341.460602 
	C928.647949,363.729431 927.903259,386.043030 925.936646,408.248413 
	C924.481628,424.676727 916.819397,439.380249 910.438843,454.366791 
	C903.088318,471.631531 896.041626,489.025391 888.784546,506.330322 
	C882.440002,521.459351 882.334290,536.692993 887.607971,552.114441 
	C893.788452,570.187439 900.248230,588.174805 905.963867,606.394775 
	C917.770813,644.032166 923.987671,682.734558 927.144348,721.992249 
	C930.008545,757.612122 930.681152,793.303345 926.638611,828.776672 
	C923.536377,855.999146 918.141296,882.968567 913.497864,910.004456 
	C910.229004,929.037354 906.329590,947.983582 907.000305,967.437683 
	C907.402222,979.095215 909.339966,990.247620 917.889893,999.234985 
	C920.141479,1001.601746 921.305664,1004.970093 923.401123,1007.524109 
	C930.067078,1015.648499 930.001160,1024.070068 925.385559,1033.083374 
	C921.040771,1041.567871 914.424866,1047.621216 906.206360,1052.120605 
	C892.704285,1059.512573 877.748596,1061.852051 862.958069,1065.118408 
	C840.540039,1070.068970 819.810852,1064.057373 798.952209,1057.360474 
	C791.066040,1054.828491 782.997253,1052.804688 774.922119,1050.936279 
	C761.714722,1047.880371 749.295837,1050.430054 737.177551,1056.254028 
	C727.190002,1061.053955 717.125244,1066.154419 706.531677,1069.089844 
	C697.710266,1071.534302 688.055664,1071.850098 678.796631,1071.678345 
	C646.842224,1071.085571 614.865295,1070.480957 582.962097,1068.707642 
	C553.292419,1067.058472 526.588867,1055.334839 500.958954,1041.112061 
	C493.701569,1037.084839 486.758789,1032.490479 479.226257,1027.736328 
	C477.890747,1026.841797 477.000793,1026.367310 476.110809,1025.892700 
	C476.110809,1025.892700 476.025360,1025.999512 476.016541,1025.603394 
	C475.044434,1024.767212 474.081116,1024.327026 473.117767,1023.886963 
	C473.117767,1023.886963 473.030121,1023.997009 473.030243,1023.598022 
	C472.081116,1022.745605 471.131836,1022.292297 470.182556,1021.838989 
	C470.182556,1021.838989 470.100372,1021.933350 470.100006,1021.524048 
	C468.758789,1020.383301 467.417938,1019.651733 466.077087,1018.920166 
	C466.077057,1018.920227 466.000000,1019.000000 466.054810,1018.610718 
	C465.291748,1017.422363 464.542023,1016.535828 463.645935,1015.836975 
	C442.585754,999.412720 423.419220,981.001404 405.443695,961.260376 
	C373.593597,926.282349 346.732178,887.679382 322.161377,847.410706 
	C292.295593,798.464294 266.427277,747.420044 242.982803,695.127747 
	C217.558868,638.420288 196.185028,580.307922 182.294220,519.609924 
	C172.773773,478.008911 167.471771,435.865631 167.291229,393.200531 
	C167.221741,376.779907 168.668671,360.326233 169.985291,343.932617 
	C171.936447,319.638123 176.800827,295.926605 186.020401,273.254242 
	C199.633743,239.776855 222.619537,215.502960 256.925934,203.209503 
	C282.599365,194.009613 308.917877,194.838669 335.043823,201.476654 
	C359.090179,207.586243 381.156677,217.646362 398.591461,236.067154 
	C400.257202,237.827118 402.071625,239.446335 403.816986,241.130920 
	C403.816986,241.130920 403.940643,241.101578 403.856201,241.445892 
	C404.182190,242.203079 404.592621,242.615952 405.003021,243.028824 
	C419.640015,266.254425 427.229706,292.186035 433.973969,318.444641 
	C439.177094,338.702820 441.094666,359.434357 441.819519,380.204956 
	C443.584167,430.769958 444.776764,481.354919 446.064087,532.856323 
	C445.928406,544.480774 445.928406,555.180847 445.928406,565.880859 
	C446.506531,565.915283 447.084656,565.949707 447.662781,565.984131 
	C448.059784,564.942444 448.499573,563.914856 448.847595,562.857056 
	C464.476654,515.352234 486.672882,470.863098 512.106201,428.019501 
	C526.566467,403.660400 530.534180,378.958557 518.791809,352.928406 
	C508.258972,329.579468 504.052826,305.523285 506.823761,280.087952 
	C508.223389,267.240204 512.946960,262.326172 525.822937,261.956390 
	C540.126953,261.545593 554.435425,261.165771 568.743347,261.104309 
	C572.331970,261.088867 574.408264,259.867096 576.532959,257.103302 
	C585.247009,245.768326 593.671631,234.134964 603.239502,223.548416 
	C621.640076,203.188873 643.076294,186.254654 666.242004,171.620743 
	C681.856689,161.756836 697.783997,152.255280 715.879578,147.508011 
	C730.678772,143.625504 745.862793,144.893234 760.961792,144.717270 
	C780.895081,144.484985 799.129456,149.348877 815.563721,160.670212 
	C817.538879,162.030853 819.227783,163.807007 821.049377,165.390564 
M853.576416,498.177734 
	C853.378296,499.779907 853.180176,501.382050 852.388855,503.438934 
	C852.115417,504.565979 851.534607,505.721375 851.635498,506.813812 
	C851.820251,508.814972 852.407471,510.778900 852.826965,512.758362 
	C854.611267,512.127258 856.993225,512.011230 858.065796,510.766693 
	C861.077148,507.272583 864.054932,503.572876 866.147034,499.493256 
	C875.969849,480.338440 882.935791,460.072998 888.609985,439.353333 
	C889.407471,436.441284 889.609009,433.365997 890.086304,430.366272 
	C889.621765,430.021027 889.157288,429.675751 888.692810,429.330475 
	C886.127380,430.857330 883.561951,432.384186 880.441162,434.291016 
	C878.085876,436.392578 875.695007,438.455750 873.381165,440.601990 
	C860.550110,452.503876 845.605591,459.769409 828.046204,461.275482 
	C819.829102,461.980286 811.604309,462.595581 802.633423,463.311218 
	C803.716736,473.304169 804.180420,483.105713 806.007385,492.646149 
	C807.412231,499.982452 810.532959,506.990204 812.996277,514.822571 
	C817.961975,521.951172 822.633911,524.297058 829.334351,521.132446 
	C834.274902,518.798950 838.764832,515.038940 842.680420,511.136780 
	C846.856873,506.974518 850.122253,501.898071 853.576416,498.177734 
z"/>
<path fill="#A08470" opacity="1.000000" stroke="none" 
	d="
M927.801208,342.838715 
	C919.228699,368.316803 908.566528,392.332214 885.759033,409.926605 
	C886.395142,402.448700 887.056396,395.649048 887.535583,388.836578 
	C888.499634,375.131775 887.246765,361.619232 883.582886,348.367615 
	C883.102905,346.631683 882.132263,345.006927 881.238708,343.414948 
	C879.459229,340.244690 877.307983,340.856018 876.260986,343.666168 
	C875.065430,346.875000 874.325012,350.382874 874.108154,353.806488 
	C872.322205,382.003967 861.677368,406.803833 844.367126,428.641571 
	C837.137207,437.762512 827.325134,444.871460 814.789734,443.630615 
	C803.794739,442.542267 792.616455,440.736084 782.156372,437.304626 
	C753.139099,427.785492 727.000732,412.513977 702.254150,394.767822 
	C696.038086,390.310211 689.683167,386.030609 683.219299,381.942322 
	C680.799438,380.411774 677.887512,379.659149 673.849243,377.995331 
	C674.887878,382.871216 675.471802,386.369598 676.386597,389.779266 
	C680.906006,406.624176 685.853516,423.362152 690.002136,440.296631 
	C695.120483,461.189301 691.937927,481.261230 682.273315,500.347443 
	C674.831421,515.044189 667.191833,529.640869 659.750305,544.337769 
	C646.451843,570.601929 638.077942,598.161438 636.749207,627.814575 
	C634.992981,667.008057 634.909058,706.090454 646.179749,744.086975 
	C652.936279,766.865295 661.407593,789.130310 668.849121,811.711487 
	C675.142883,830.809631 681.461304,849.965332 681.861511,870.354736 
	C681.934753,874.084839 681.080444,877.985962 679.889343,881.552673 
	C678.070068,887.000244 672.543579,890.237610 667.152954,888.363831 
	C658.880493,885.488464 650.288574,882.676697 642.976990,878.034851 
	C603.168701,852.761414 569.697510,820.595093 542.358582,782.216675 
	C535.723022,772.901672 530.651367,762.473389 524.842224,752.567871 
	C524.120239,751.336792 523.284790,750.172241 522.501953,748.976868 
	C521.932434,748.925720 521.362976,748.874573 520.793518,748.823425 
	C517.868469,759.436462 513.654724,769.889893 512.315369,780.699402 
	C510.215729,797.644226 509.112274,814.838074 509.265900,831.911377 
	C509.627411,872.093323 514.604797,911.762451 525.259644,950.627747 
	C526.878845,956.534058 527.750488,962.653748 528.791382,968.705139 
	C529.110291,970.559265 528.840759,972.514709 528.840759,975.498657 
	C517.353699,967.255310 510.280334,956.648499 502.998413,945.472473 
	C499.803619,934.232971 496.978271,923.619080 493.352997,913.285889 
	C478.405457,870.680420 468.668060,826.981384 466.292419,781.857788 
	C464.654236,750.742371 465.740448,719.668701 469.772339,688.688721 
	C475.439758,645.141724 486.197540,602.900391 500.740753,561.533875 
	C512.842773,527.110962 528.264404,494.123535 543.965637,461.267944 
	C546.382874,456.209839 545.777222,453.338257 541.512634,450.071472 
	C537.059265,446.660126 533.131897,442.562164 528.974609,438.764343 
	C529.422119,437.294861 529.869690,435.825378 530.817322,432.713837 
	C537.880737,440.000061 544.021179,446.334290 550.161682,452.668488 
	C550.512634,452.549469 550.863525,452.430481 551.214478,452.311493 
	C550.437561,449.469360 549.660645,446.627228 548.936401,443.394501 
	C563.524658,452.672028 579.807739,457.594971 596.814880,460.452606 
	C599.981140,460.984589 603.255371,460.873749 606.479797,461.059601 
	C606.658447,460.587219 606.837158,460.114838 607.015808,459.642426 
	C605.697083,458.638153 604.494690,457.398560 603.036011,456.677368 
	C599.759216,455.057220 596.375183,453.646576 592.999817,452.234344 
	C568.999207,442.192474 561.029236,425.291870 568.724426,400.435181 
	C574.220642,382.681366 583.636658,366.864746 595.086121,352.556427 
	C613.700256,329.294373 633.283203,306.806793 652.500732,284.029022 
	C656.474060,279.319550 660.852295,274.935822 664.604736,270.063782 
	C666.047058,268.191162 667.054199,265.324829 666.907104,262.996735 
	C666.130859,250.713806 664.585693,238.475174 663.965393,226.187958 
	C663.414673,215.279510 666.613770,211.274979 677.056641,207.921051 
	C687.799316,204.470795 698.144531,206.562210 708.190979,210.695358 
	C711.858948,212.204376 715.610046,213.968536 718.661743,216.434799 
	C728.935303,224.737457 741.108398,226.957016 753.654358,227.948959 
	C777.456360,229.830856 800.745178,226.626266 823.858582,220.959549 
	C847.281921,215.216827 871.123840,213.268005 895.213074,215.051331 
	C899.777893,215.389267 904.268616,216.169098 905.557739,221.804504 
	C896.880310,221.185593 888.598633,218.875275 880.519104,219.442764 
	C866.654724,220.416580 852.731689,222.371262 839.179199,225.441299 
	C826.449585,228.324936 813.965149,232.659882 801.763916,237.369431 
	C794.374451,240.221619 788.535400,245.877289 786.048523,253.868301 
	C782.795593,264.321289 787.299683,272.821960 793.856873,280.348022 
	C808.819336,297.521179 829.134888,305.884705 849.612671,314.175964 
	C861.573486,319.018799 871.005432,315.431976 879.727966,307.630096 
	C890.198486,298.264740 897.775818,286.797607 903.210632,273.889465 
	C905.304810,268.915588 907.319336,263.908173 909.370117,258.916046 
	C918.445129,279.413727 924.132324,300.788452 925.981567,323.153687 
	C926.515015,329.605652 927.013794,336.060455 927.801208,342.838715 
M724.602661,223.875519 
	C712.864868,218.725540 701.122925,213.629791 687.897949,213.916428 
	C676.861328,214.155609 669.814148,220.722092 670.147644,231.676910 
	C670.347412,238.240097 671.468140,244.902771 673.145874,251.264679 
	C675.919067,261.780609 675.858215,271.576782 669.197449,280.735382 
	C667.807251,282.646973 667.045349,285.015533 665.993835,287.173523 
	C666.448730,287.607697 666.903625,288.041901 667.358459,288.476074 
	C671.405151,285.631744 675.806763,283.178192 679.439514,279.878235 
	C699.567017,261.594696 722.903442,249.472290 749.145752,242.706757 
	C751.390625,242.127991 753.522461,241.110733 756.674927,239.936615 
	C745.481628,234.314011 735.387878,229.243729 724.602661,223.875519 
z"/>
<path fill="#46352F" opacity="1.000000" stroke="none" 
	d="
M909.302124,258.500732 
	C907.319336,263.908173 905.304810,268.915588 903.210632,273.889465 
	C897.775818,286.797607 890.198486,298.264740 879.727966,307.630096 
	C871.005432,315.431976 861.573486,319.018799 849.612671,314.175964 
	C829.134888,305.884705 808.819336,297.521179 793.856873,280.348022 
	C787.299683,272.821960 782.795593,264.321289 786.048523,253.868301 
	C788.535400,245.877289 794.374451,240.221619 801.763916,237.369431 
	C813.965149,232.659882 826.449585,228.324936 839.179199,225.441299 
	C852.731689,222.371262 866.654724,220.416580 880.519104,219.442764 
	C888.598633,218.875275 896.880310,221.185593 905.470215,222.167252 
	C912.000061,229.489395 910.810120,238.244110 910.458862,246.785660 
	C910.303589,250.562668 909.657349,254.319473 909.302124,258.500732 
z"/>
<path fill="#A08571" opacity="1.000000" stroke="none" 
	d="
M403.871643,240.776794 
	C402.071625,239.446335 400.257202,237.827118 398.591461,236.067154 
	C381.156677,217.646362 359.090179,207.586243 335.043823,201.476654 
	C308.917877,194.838669 282.599365,194.009613 256.925934,203.209503 
	C222.619537,215.502960 199.633743,239.776855 186.020401,273.254242 
	C176.800827,295.926605 171.936447,319.638123 169.985291,343.932617 
	C168.668671,360.326233 167.221741,376.779907 167.291229,393.200531 
	C167.471771,435.865631 172.773773,478.008911 182.294220,519.609924 
	C196.185028,580.307922 217.558868,638.420288 242.982803,695.127747 
	C266.427277,747.420044 292.295593,798.464294 322.161377,847.410706 
	C346.732178,887.679382 373.593597,926.282349 405.443695,961.260376 
	C423.419220,981.001404 442.585754,999.412720 463.645935,1015.836975 
	C464.542023,1016.535828 465.291748,1017.422363 466.090820,1018.568481 
	C459.715210,1014.478149 453.152557,1010.306213 447.034973,1005.560547 
	C407.249298,974.697083 375.465057,936.549133 347.136292,895.292175 
	C303.936371,832.377563 268.094543,765.396301 237.144104,695.736206 
	C215.642929,647.343384 196.489685,598.029175 182.746323,546.846680 
	C176.248566,522.647888 171.144470,498.009613 166.780518,473.327972 
	C164.215424,458.820343 163.749649,443.851410 163.381271,429.063995 
	C162.584946,397.098816 161.000549,365.050781 162.445602,333.159302 
	C164.084427,296.991882 174.717712,262.813843 197.420975,233.951172 
	C219.746307,205.568985 249.412704,190.026291 286.075653,188.757721 
	C321.077820,187.546600 352.637390,197.984024 381.913086,216.369919 
	C391.406128,222.331802 398.647797,230.520126 403.871643,240.776794 
z"/>
<path fill="#A08571" opacity="1.000000" stroke="none" 
	d="
M821.360840,165.607239 
	C819.227783,163.807007 817.538879,162.030853 815.563721,160.670212 
	C799.129456,149.348877 780.895081,144.484985 760.961792,144.717270 
	C745.862793,144.893234 730.678772,143.625504 715.879578,147.508011 
	C697.783997,152.255280 681.856689,161.756836 666.242004,171.620743 
	C643.076294,186.254654 621.640076,203.188873 603.239502,223.548416 
	C593.671631,234.134964 585.247009,245.768326 576.532959,257.103302 
	C574.408264,259.867096 572.331970,261.088867 568.743347,261.104309 
	C554.435425,261.165771 540.126953,261.545593 525.822937,261.956390 
	C512.946960,262.326172 508.223389,267.240204 506.823761,280.087952 
	C504.052826,305.523285 508.258972,329.579468 518.791809,352.928406 
	C530.534180,378.958557 526.566467,403.660400 512.106201,428.019501 
	C486.672882,470.863098 464.476654,515.352234 448.847595,562.857056 
	C448.499573,563.914856 448.059784,564.942444 447.662781,565.984131 
	C447.084656,565.949707 446.506531,565.915283 445.928406,565.880859 
	C445.928406,555.180847 445.928406,544.480774 446.053528,533.315552 
	C446.544312,533.736633 446.909973,534.622925 447.545776,536.164185 
	C452.031494,525.818481 455.870605,515.781067 460.633759,506.203308 
	C474.117981,479.089294 488.072876,452.209747 501.646942,425.139832 
	C506.788208,414.886963 511.356110,404.347656 516.258057,393.973297 
	C520.158020,385.719452 520.453857,377.302094 517.494690,368.765717 
	C512.540161,354.473358 507.660797,340.150940 502.422272,325.962067 
	C495.108948,306.153442 495.651611,286.155914 500.387024,266.002441 
	C501.883423,259.633942 504.807922,257.184967 511.790710,256.989929 
	C527.272461,256.557587 542.764404,256.228729 558.249146,256.327850 
	C562.656006,256.356049 565.328369,254.881668 567.704773,251.451721 
	C591.146240,217.618134 620.229248,189.436127 654.652954,167.040131 
	C668.678711,157.914993 683.596680,149.940430 698.796021,142.933075 
	C706.399475,139.427658 715.490601,138.287766 724.008057,137.796371 
	C744.926514,136.589493 766.048035,135.047272 786.664856,140.070923 
	C802.297119,143.879974 815.271729,153.207870 827.777100,163.008881 
	C828.502563,163.577454 828.984009,164.457260 830.090393,165.823944 
	C826.793152,165.823944 824.232727,165.823944 821.360840,165.607239 
z"/>
<path fill="#A08571" opacity="1.000000" stroke="none" 
	d="
M466.106995,1019.261475 
	C467.417938,1019.651733 468.758789,1020.383301 470.117676,1021.464050 
	C468.802765,1021.076416 467.469849,1020.339539 466.106995,1019.261475 
z"/>
<path fill="#A08571" opacity="1.000000" stroke="none" 
	d="
M470.210052,1022.170776 
	C471.131836,1022.292297 472.081116,1022.745605 473.064148,1023.536621 
	C472.144470,1023.417053 471.191010,1022.959778 470.210052,1022.170776 
z"/>
<path fill="#A08571" opacity="1.000000" stroke="none" 
	d="
M473.177765,1024.211182 
	C474.081116,1024.327026 475.044434,1024.767212 476.050476,1025.544434 
	C475.141388,1025.432739 474.189575,1024.984009 473.177765,1024.211182 
z"/>
<path fill="#A08571" opacity="1.000000" stroke="none" 
	d="
M476.179993,1026.212891 
	C477.000793,1026.367310 477.890747,1026.841797 478.900879,1027.626465 
	C478.097076,1027.468628 477.173157,1027.000977 476.179993,1026.212891 
z"/>
<path fill="#A08571" opacity="1.000000" stroke="none" 
	d="
M405.022705,242.713928 
	C404.592621,242.615952 404.182190,242.203079 403.805176,241.483704 
	C404.239807,241.584488 404.641083,241.991760 405.022705,242.713928 
z"/>
<path fill="#A08470" opacity="1.000000" stroke="none" 
	d="
M548.983765,442.734619 
	C548.696533,442.828156 548.398315,442.647217 548.086914,442.182861 
	C548.373474,442.086334 548.673035,442.273254 548.983765,442.734619 
z"/>
<path fill="#FCFCFC" opacity="1.000000" stroke="none" 
	d="
M528.644043,438.898010 
	C533.131897,442.562164 537.059265,446.660126 541.512634,450.071472 
	C545.777222,453.338257 546.382874,456.209839 543.965637,461.267944 
	C528.264404,494.123535 512.842773,527.110962 500.740753,561.533875 
	C486.197540,602.900391 475.439758,645.141724 469.772339,688.688721 
	C465.740448,719.668701 464.654236,750.742371 466.292419,781.857788 
	C468.668060,826.981384 478.405457,870.680420 493.352997,913.285889 
	C496.978271,923.619080 499.803619,934.232971 503.001251,945.148804 
	C496.169495,934.412048 488.875153,923.495483 482.586548,912.027344 
	C466.464294,882.626282 453.285583,851.949280 447.753479,818.677429 
	C445.445404,804.796021 444.668823,790.504944 444.763092,776.410583 
	C444.976837,744.451721 445.037689,712.419800 447.290680,680.568176 
	C449.289154,652.314941 457.471405,625.002563 465.984253,598.019226 
	C482.646423,545.204773 501.064056,493.047211 525.928711,443.402557 
	C526.671509,441.919464 527.516235,440.487457 528.644043,438.898010 
z"/>
<path fill="#FCFCFC" opacity="1.000000" stroke="none" 
	d="
M812.890686,514.144043 
	C810.532959,506.990204 807.412231,499.982452 806.007385,492.646149 
	C804.180420,483.105713 803.716736,473.304169 802.633423,463.311218 
	C811.604309,462.595581 819.829102,461.980286 828.046204,461.275482 
	C845.605591,459.769409 860.550110,452.503876 873.381165,440.601990 
	C875.695007,438.455750 878.085876,436.392578 881.003784,434.295410 
	C881.556702,434.784119 881.684021,435.322357 881.517761,435.745056 
	C873.205261,456.874237 864.903687,478.007935 856.457764,499.083801 
	C855.848511,500.604126 854.165710,501.694153 852.982056,502.984253 
	C853.180176,501.382050 853.378296,499.779907 853.656189,497.707581 
	C853.735962,497.237457 853.764832,497.254791 853.897339,497.013855 
	C853.899780,496.506592 853.769775,496.240326 853.639709,495.974030 
	C853.333435,496.223389 853.027100,496.472717 852.462646,496.434784 
	C852.765137,487.383636 853.325745,478.619751 853.886353,469.855865 
	C849.484436,478.768524 845.851257,487.835938 842.016418,496.817230 
	C834.562805,514.273682 831.362305,516.127625 812.890686,514.144043 
z"/>
<path fill="#9F8471" opacity="1.000000" stroke="none" 
	d="
M852.685425,503.211609 
	C854.165710,501.694153 855.848511,500.604126 856.457764,499.083801 
	C864.903687,478.007935 873.205261,456.874237 881.517761,435.745056 
	C881.684021,435.322357 881.556702,434.784119 881.281433,434.105408 
	C883.561951,432.384186 886.127380,430.857330 888.692810,429.330475 
	C889.157288,429.675751 889.621765,430.021027 890.086304,430.366272 
	C889.609009,433.365997 889.407471,436.441284 888.609985,439.353333 
	C882.935791,460.072998 875.969849,480.338440 866.147034,499.493256 
	C864.054932,503.572876 861.077148,507.272583 858.065796,510.766693 
	C856.993225,512.011230 854.611267,512.127258 852.826965,512.758362 
	C852.407471,510.778900 851.820251,508.814972 851.635498,506.813812 
	C851.534607,505.721375 852.115417,504.565979 852.685425,503.211609 
z"/>
<path fill="#A18673" opacity="1.000000" stroke="none" 
	d="
M853.764832,497.254791 
	C853.764832,497.254791 853.735962,497.237457 853.760681,497.229095 
	C850.122253,501.898071 846.856873,506.974518 842.680420,511.136780 
	C838.764832,515.038940 834.274902,518.798950 829.334351,521.132446 
	C822.633911,524.297058 817.961975,521.951172 812.943481,514.483276 
	C831.362305,516.127625 834.562805,514.273682 842.016418,496.817230 
	C845.851257,487.835938 849.484436,478.768524 853.886353,469.855865 
	C853.325745,478.619751 852.765137,487.383636 852.702271,496.609924 
	C853.388306,497.133179 853.576599,497.194000 853.764832,497.254791 
z"/>
<path fill="#463630" opacity="1.000000" stroke="none" 
	d="
M724.948364,224.024475 
	C735.387878,229.243729 745.481628,234.314011 756.674927,239.936615 
	C753.522461,241.110733 751.390625,242.127991 749.145752,242.706757 
	C722.903442,249.472290 699.567017,261.594696 679.439514,279.878235 
	C675.806763,283.178192 671.405151,285.631744 667.358459,288.476074 
	C666.903625,288.041901 666.448730,287.607697 665.993835,287.173523 
	C667.045349,285.015533 667.807251,282.646973 669.197449,280.735382 
	C675.858215,271.576782 675.919067,261.780609 673.145874,251.264679 
	C671.468140,244.902771 670.347412,238.240097 670.147644,231.676910 
	C669.814148,220.722092 676.861328,214.155609 687.897949,213.916428 
	C701.122925,213.629791 712.864868,218.725540 724.948364,224.024475 
z"/>
<path fill="#A18673" opacity="1.000000" stroke="none" 
	d="
M852.960388,496.897186 
	C853.027100,496.472717 853.333435,496.223389 853.639709,495.974030 
	C853.769775,496.240326 853.899780,496.506592 853.897339,497.013855 
	C853.576599,497.194000 853.388306,497.133179 852.960388,496.897186 
z"/>
</svg>